<svg width="5303" height="4669" viewBox="0 0 5303 4669" fill="none" xmlns="http://www.w3.org/2000/svg">
<rect x="1649" y="3" width="2004" height="1010" rx="97" fill="white" stroke="black" stroke-width="6"/>
<path d="M2517.09 530.883C2515.34 545.922 2509.77 557.543 2500.39 565.746C2491.08 573.884 2478.68 577.953 2463.19 577.953C2446.39 577.953 2432.91 571.931 2422.76 559.887C2412.67 547.842 2407.62 531.729 2407.62 511.547V497.875C2407.62 484.659 2409.96 473.038 2414.65 463.012C2419.4 452.986 2426.11 445.303 2434.77 439.965C2443.43 434.561 2453.45 431.859 2464.85 431.859C2479.95 431.859 2492.06 436.091 2501.18 444.555C2510.29 452.953 2515.6 464.607 2517.09 479.516H2498.25C2496.62 468.188 2493.07 459.984 2487.6 454.906C2482.2 449.828 2474.61 447.289 2464.85 447.289C2452.87 447.289 2443.46 451.716 2436.62 460.57C2429.85 469.424 2426.47 482.022 2426.47 498.363V512.133C2426.47 527.562 2429.69 539.835 2436.14 548.949C2442.58 558.064 2451.6 562.621 2463.19 562.621C2473.6 562.621 2481.58 560.277 2487.11 555.59C2492.71 550.837 2496.42 542.602 2498.25 530.883H2517.09ZM2559.57 576H2541.51V426H2559.57V576ZM2608.21 576H2590.14V470.336H2608.21V576ZM2588.68 442.309C2588.68 439.379 2589.55 436.905 2591.31 434.887C2593.14 432.868 2595.8 431.859 2599.32 431.859C2602.84 431.859 2605.51 432.868 2607.33 434.887C2609.15 436.905 2610.06 439.379 2610.06 442.309C2610.06 445.238 2609.15 447.68 2607.33 449.633C2605.51 451.586 2602.84 452.562 2599.32 452.562C2595.8 452.562 2593.14 451.586 2591.31 449.633C2589.55 447.68 2588.68 445.238 2588.68 442.309ZM2681.06 577.953C2666.74 577.953 2655.08 573.266 2646.1 563.891C2637.11 554.451 2632.62 541.853 2632.62 526.098V522.777C2632.62 512.296 2634.61 502.953 2638.58 494.75C2642.61 486.482 2648.21 480.036 2655.38 475.414C2662.6 470.727 2670.41 468.383 2678.81 468.383C2692.55 468.383 2703.23 472.908 2710.84 481.957C2718.46 491.007 2722.27 503.962 2722.27 520.824V528.344H2650.69C2650.95 538.76 2653.98 547.191 2659.77 553.637C2665.63 560.017 2673.05 563.207 2682.04 563.207C2688.42 563.207 2693.82 561.905 2698.25 559.301C2702.67 556.697 2706.55 553.246 2709.87 548.949L2720.9 557.543C2712.05 571.15 2698.77 577.953 2681.06 577.953ZM2678.81 483.227C2671.52 483.227 2665.4 485.896 2660.45 491.234C2655.51 496.508 2652.45 503.93 2651.27 513.5H2704.2V512.133C2703.68 502.953 2701.21 495.857 2696.78 490.844C2692.35 485.766 2686.36 483.227 2678.81 483.227ZM2760.36 470.336L2760.94 483.617C2769.01 473.461 2779.56 468.383 2792.58 468.383C2814.91 468.383 2826.18 480.98 2826.37 506.176V576H2808.3V506.078C2808.24 498.461 2806.48 492.829 2803.03 489.184C2799.65 485.538 2794.34 483.715 2787.11 483.715C2781.25 483.715 2776.11 485.277 2771.68 488.402C2767.26 491.527 2763.81 495.629 2761.33 500.707V576H2743.27V470.336H2760.36ZM2878.13 444.75V470.336H2897.86V484.301H2878.13V549.828C2878.13 554.06 2879.01 557.25 2880.77 559.398C2882.52 561.482 2885.52 562.523 2889.75 562.523C2891.83 562.523 2894.7 562.133 2898.34 561.352V576C2893.59 577.302 2888.97 577.953 2884.48 577.953C2876.4 577.953 2870.32 575.512 2866.21 570.629C2862.11 565.746 2860.06 558.812 2860.06 549.828V484.301H2840.82V470.336H2860.06V444.75H2878.13Z" fill="black"/>
<rect x="1649" y="1856" width="2004" height="1010" rx="97" fill="white" stroke="black" stroke-width="6"/>
<path d="M2045.35 2413.67H2112.73V2429H2026.5V2286.81H2045.35V2413.67ZM2126.5 2375.19C2126.5 2364.84 2128.52 2355.53 2132.56 2347.26C2136.66 2338.99 2142.32 2332.61 2149.55 2328.12C2156.84 2323.63 2165.14 2321.38 2174.45 2321.38C2188.84 2321.38 2200.46 2326.36 2209.32 2336.32C2218.24 2346.29 2222.7 2359.53 2222.7 2376.07V2377.34C2222.7 2387.63 2220.71 2396.87 2216.74 2405.07C2212.83 2413.21 2207.2 2419.56 2199.84 2424.12C2192.55 2428.67 2184.15 2430.95 2174.65 2430.95C2160.33 2430.95 2148.7 2425.97 2139.79 2416.01C2130.93 2406.05 2126.5 2392.87 2126.5 2376.46V2375.19ZM2144.67 2377.34C2144.67 2389.06 2147.37 2398.47 2152.77 2405.56C2158.24 2412.66 2165.53 2416.21 2174.65 2416.21C2183.83 2416.21 2191.12 2412.63 2196.52 2405.46C2201.93 2398.24 2204.63 2388.15 2204.63 2375.19C2204.63 2363.6 2201.86 2354.23 2196.33 2347.07C2190.86 2339.84 2183.57 2336.23 2174.45 2336.23C2165.53 2336.23 2158.34 2339.77 2152.87 2346.87C2147.4 2353.97 2144.67 2364.12 2144.67 2377.34ZM2241.05 2375.29C2241.05 2358.82 2244.86 2345.73 2252.48 2336.03C2260.1 2326.27 2270.19 2321.38 2282.75 2321.38C2295.64 2321.38 2305.7 2325.94 2312.93 2335.05L2313.81 2323.34H2330.31V2426.46C2330.31 2440.13 2326.24 2450.91 2318.11 2458.79C2310.03 2466.66 2299.16 2470.6 2285.49 2470.6C2277.87 2470.6 2270.42 2468.97 2263.12 2465.72C2255.83 2462.46 2250.27 2458 2246.43 2452.34L2255.8 2441.5C2263.55 2451.07 2273.02 2455.86 2284.22 2455.86C2293.01 2455.86 2299.84 2453.38 2304.73 2448.43C2309.67 2443.49 2312.15 2436.52 2312.15 2427.54V2418.45C2304.92 2426.79 2295.06 2430.95 2282.56 2430.95C2270.19 2430.95 2260.16 2425.97 2252.48 2416.01C2244.86 2406.05 2241.05 2392.48 2241.05 2375.29ZM2259.22 2377.34C2259.22 2389.25 2261.66 2398.63 2266.54 2405.46C2271.43 2412.24 2278.26 2415.62 2287.05 2415.62C2298.44 2415.62 2306.81 2410.45 2312.15 2400.09V2351.85C2306.61 2341.76 2298.31 2336.71 2287.25 2336.71C2278.46 2336.71 2271.59 2340.13 2266.64 2346.97C2261.69 2353.8 2259.22 2363.93 2259.22 2377.34ZM2353.36 2375.29C2353.36 2358.82 2357.17 2345.73 2364.79 2336.03C2372.4 2326.27 2382.49 2321.38 2395.06 2321.38C2407.95 2321.38 2418.01 2325.94 2425.23 2335.05L2426.11 2323.34H2442.62V2426.46C2442.62 2440.13 2438.55 2450.91 2430.41 2458.79C2422.34 2466.66 2411.46 2470.6 2397.79 2470.6C2390.18 2470.6 2382.72 2468.97 2375.43 2465.72C2368.14 2462.46 2362.57 2458 2358.73 2452.34L2368.11 2441.5C2375.85 2451.07 2385.33 2455.86 2396.52 2455.86C2405.31 2455.86 2412.15 2453.38 2417.03 2448.43C2421.98 2443.49 2424.45 2436.52 2424.45 2427.54V2418.45C2417.23 2426.79 2407.36 2430.95 2394.86 2430.95C2382.49 2430.95 2372.47 2425.97 2364.79 2416.01C2357.17 2406.05 2353.36 2392.48 2353.36 2375.29ZM2371.52 2377.34C2371.52 2389.25 2373.96 2398.63 2378.85 2405.46C2383.73 2412.24 2390.57 2415.62 2399.36 2415.62C2410.75 2415.62 2419.11 2410.45 2424.45 2400.09V2351.85C2418.92 2341.76 2410.62 2336.71 2399.55 2336.71C2390.76 2336.71 2383.89 2340.13 2378.95 2346.97C2374 2353.8 2371.52 2363.93 2371.52 2377.34ZM2513.81 2430.95C2499.49 2430.95 2487.83 2426.27 2478.85 2416.89C2469.86 2407.45 2465.37 2394.85 2465.37 2379.1V2375.78C2465.37 2365.3 2467.36 2355.95 2471.33 2347.75C2475.36 2339.48 2480.96 2333.04 2488.12 2328.41C2495.35 2323.73 2503.16 2321.38 2511.56 2321.38C2525.3 2321.38 2535.98 2325.91 2543.59 2334.96C2551.21 2344.01 2555.02 2356.96 2555.02 2373.82V2381.34H2483.44C2483.7 2391.76 2486.73 2400.19 2492.52 2406.64C2498.38 2413.02 2505.8 2416.21 2514.79 2416.21C2521.17 2416.21 2526.57 2414.9 2531 2412.3C2535.42 2409.7 2539.3 2406.25 2542.62 2401.95L2553.65 2410.54C2544.8 2424.15 2531.52 2430.95 2513.81 2430.95ZM2511.56 2336.23C2504.27 2336.23 2498.15 2338.9 2493.2 2344.23C2488.26 2349.51 2485.2 2356.93 2484.02 2366.5H2536.95V2365.13C2536.43 2355.95 2533.96 2348.86 2529.53 2343.84C2525.1 2338.77 2519.11 2336.23 2511.56 2336.23ZM2627.09 2339.55C2624.36 2339.09 2621.39 2338.86 2618.2 2338.86C2606.35 2338.86 2598.31 2343.91 2594.08 2354V2429H2576.02V2323.34H2593.59L2593.89 2335.54C2599.81 2326.1 2608.21 2321.38 2619.08 2321.38C2622.6 2321.38 2625.27 2321.84 2627.09 2322.75V2339.55ZM2725.04 2366.21H2665.37V2429H2646.62V2286.81H2734.71V2302.24H2665.37V2350.88H2725.04V2366.21ZM2816.25 2429C2815.21 2426.92 2814.36 2423.21 2813.71 2417.87C2805.31 2426.59 2795.29 2430.95 2783.63 2430.95C2773.22 2430.95 2764.65 2428.02 2757.95 2422.16C2751.31 2416.24 2747.99 2408.75 2747.99 2399.7C2747.99 2388.7 2752.15 2380.17 2760.49 2374.12C2768.89 2368 2780.67 2364.94 2795.84 2364.94H2813.42V2356.64C2813.42 2350.32 2811.53 2345.31 2807.75 2341.6C2803.98 2337.82 2798.41 2335.93 2791.05 2335.93C2784.61 2335.93 2779.21 2337.56 2774.84 2340.82C2770.48 2344.07 2768.3 2348.01 2768.3 2352.63H2750.14C2750.14 2347.36 2751.99 2342.28 2755.7 2337.4C2759.48 2332.45 2764.56 2328.54 2770.94 2325.68C2777.38 2322.82 2784.45 2321.38 2792.13 2321.38C2804.3 2321.38 2813.84 2324.44 2820.74 2330.56C2827.64 2336.62 2831.22 2344.98 2831.48 2355.66V2404.29C2831.48 2413.99 2832.72 2421.71 2835.2 2427.44V2429H2816.25ZM2786.27 2415.23C2791.93 2415.23 2797.3 2413.77 2802.38 2410.84C2807.46 2407.91 2811.14 2404.1 2813.42 2399.41V2377.73H2799.26C2777.12 2377.73 2766.05 2384.21 2766.05 2397.16C2766.05 2402.83 2767.94 2407.26 2771.72 2410.45C2775.49 2413.64 2780.35 2415.23 2786.27 2415.23ZM2902.19 2416.21C2908.63 2416.21 2914.26 2414.25 2919.08 2410.35C2923.9 2406.44 2926.57 2401.56 2927.09 2395.7H2944.18C2943.85 2401.75 2941.77 2407.52 2937.93 2412.98C2934.09 2418.45 2928.95 2422.82 2922.5 2426.07C2916.12 2429.33 2909.35 2430.95 2902.19 2430.95C2887.8 2430.95 2876.34 2426.17 2867.81 2416.6C2859.35 2406.96 2855.12 2393.81 2855.12 2377.14V2374.12C2855.12 2363.83 2857.01 2354.68 2860.78 2346.68C2864.56 2338.67 2869.96 2332.45 2876.99 2328.02C2884.09 2323.6 2892.45 2321.38 2902.09 2321.38C2913.94 2321.38 2923.77 2324.93 2931.58 2332.03C2939.46 2339.12 2943.66 2348.34 2944.18 2359.66H2927.09C2926.57 2352.83 2923.96 2347.23 2919.28 2342.87C2914.65 2338.44 2908.93 2336.23 2902.09 2336.23C2892.91 2336.23 2885.78 2339.55 2880.7 2346.19C2875.69 2352.76 2873.18 2362.3 2873.18 2374.8V2378.22C2873.18 2390.39 2875.69 2399.77 2880.7 2406.34C2885.72 2412.92 2892.88 2416.21 2902.19 2416.21ZM2989 2297.75V2323.34H3008.73V2337.3H2989V2402.83C2989 2407.06 2989.88 2410.25 2991.64 2412.4C2993.4 2414.48 2996.39 2415.52 3000.62 2415.52C3002.71 2415.52 3005.57 2415.13 3009.22 2414.35V2429C3004.47 2430.3 2999.84 2430.95 2995.35 2430.95C2987.28 2430.95 2981.19 2428.51 2977.09 2423.63C2972.99 2418.75 2970.94 2411.81 2970.94 2402.83V2337.3H2951.7V2323.34H2970.94V2297.75H2989ZM3023.18 2375.19C3023.18 2364.84 3025.2 2355.53 3029.24 2347.26C3033.34 2338.99 3039 2332.61 3046.23 2328.12C3053.52 2323.63 3061.82 2321.38 3071.13 2321.38C3085.52 2321.38 3097.14 2326.36 3106 2336.32C3114.92 2346.29 3119.38 2359.53 3119.38 2376.07V2377.34C3119.38 2387.63 3117.39 2396.87 3113.42 2405.07C3109.51 2413.21 3103.88 2419.56 3096.52 2424.12C3089.23 2428.67 3080.83 2430.95 3071.33 2430.95C3057.01 2430.95 3045.38 2425.97 3036.46 2416.01C3027.61 2406.05 3023.18 2392.87 3023.18 2376.46V2375.19ZM3041.35 2377.34C3041.35 2389.06 3044.05 2398.47 3049.45 2405.56C3054.92 2412.66 3062.21 2416.21 3071.33 2416.21C3080.51 2416.21 3087.8 2412.63 3093.2 2405.46C3098.61 2398.24 3101.31 2388.15 3101.31 2375.19C3101.31 2363.6 3098.54 2354.23 3093.01 2347.07C3087.54 2339.84 3080.25 2336.23 3071.13 2336.23C3062.21 2336.23 3055.02 2339.77 3049.55 2346.87C3044.08 2353.97 3041.35 2364.12 3041.35 2377.34ZM3193.11 2339.55C3190.37 2339.09 3187.41 2338.86 3184.22 2338.86C3172.37 2338.86 3164.33 2343.91 3160.1 2354V2429H3142.03V2323.34H3159.61L3159.9 2335.54C3165.83 2326.1 3174.23 2321.38 3185.1 2321.38C3188.61 2321.38 3191.28 2321.84 3193.11 2322.75V2339.55ZM3246.13 2402.54L3270.74 2323.34H3290.08L3247.6 2445.31C3241.02 2462.89 3230.57 2471.68 3216.25 2471.68L3212.83 2471.38L3206.09 2470.11V2455.46L3210.98 2455.86C3217.1 2455.86 3221.85 2454.62 3225.23 2452.14C3228.68 2449.67 3231.52 2445.15 3233.73 2438.57L3237.73 2427.83L3200.04 2323.34H3219.77L3246.13 2402.54Z" fill="black"/>
<rect x="3" y="3656" width="2004" height="1010" rx="97" fill="white" stroke="black" stroke-width="6"/>
<path d="M243.254 4173.34V4229H224.504V4086.81H276.945C292.505 4086.81 304.68 4090.78 313.469 4098.73C322.323 4106.67 326.75 4117.18 326.75 4130.27C326.75 4144.07 322.421 4154.72 313.762 4162.2C305.168 4169.62 292.831 4173.34 276.75 4173.34H243.254ZM243.254 4158H276.945C286.971 4158 294.654 4155.66 299.992 4150.97C305.331 4146.22 308 4139.38 308 4130.46C308 4122 305.331 4115.23 299.992 4110.15C294.654 4105.07 287.329 4102.44 278.02 4102.24H243.254V4158ZM398.918 4139.55C396.184 4139.09 393.221 4138.86 390.031 4138.86C378.182 4138.86 370.142 4143.91 365.91 4154V4229H347.844V4123.34H365.422L365.715 4135.54C371.639 4126.1 380.038 4121.38 390.91 4121.38C394.426 4121.38 397.095 4121.84 398.918 4122.75V4139.55ZM408.879 4175.19C408.879 4164.84 410.897 4155.53 414.934 4147.26C419.035 4138.99 424.699 4132.61 431.926 4128.12C439.217 4123.63 447.518 4121.38 456.828 4121.38C471.216 4121.38 482.837 4126.36 491.691 4136.32C500.611 4146.29 505.07 4159.53 505.07 4176.07V4177.34C505.07 4187.63 503.085 4196.87 499.113 4205.07C495.207 4213.21 489.576 4219.56 482.219 4224.12C474.927 4228.67 466.529 4230.95 457.023 4230.95C442.701 4230.95 431.079 4225.97 422.16 4216.01C413.306 4206.05 408.879 4192.87 408.879 4176.46V4175.19ZM427.043 4177.34C427.043 4189.06 429.745 4198.47 435.148 4205.56C440.617 4212.66 447.909 4216.21 457.023 4216.21C466.203 4216.21 473.495 4212.63 478.898 4205.46C484.302 4198.24 487.004 4188.15 487.004 4175.19C487.004 4163.6 484.237 4154.23 478.703 4147.07C473.234 4139.84 465.943 4136.23 456.828 4136.23C447.909 4136.23 440.715 4139.77 435.246 4146.87C429.777 4153.97 427.043 4164.12 427.043 4177.34ZM523.332 4175.29C523.332 4159.08 527.173 4146.06 534.855 4136.23C542.538 4126.33 552.596 4121.38 565.031 4121.38C577.401 4121.38 587.199 4125.61 594.426 4134.08V4079H612.492V4229H595.891L595.012 4217.67C587.785 4226.53 577.727 4230.95 564.836 4230.95C552.596 4230.95 542.603 4225.94 534.855 4215.91C527.173 4205.89 523.332 4192.8 523.332 4176.66V4175.29ZM541.398 4177.34C541.398 4189.32 543.872 4198.69 548.82 4205.46C553.768 4212.24 560.604 4215.62 569.328 4215.62C580.786 4215.62 589.152 4210.48 594.426 4200.19V4151.66C589.022 4141.7 580.721 4136.71 569.523 4136.71C560.669 4136.71 553.768 4140.13 548.82 4146.97C543.872 4153.8 541.398 4163.93 541.398 4177.34ZM705.852 4218.55C698.82 4226.82 688.501 4230.95 674.895 4230.95C663.632 4230.95 655.038 4227.7 649.113 4221.19C643.254 4214.61 640.292 4204.91 640.227 4192.09V4123.34H658.293V4191.6C658.293 4207.61 664.803 4215.62 677.824 4215.62C691.626 4215.62 700.806 4210.48 705.363 4200.19V4123.34H723.43V4229H706.242L705.852 4218.55ZM793.352 4216.21C799.797 4216.21 805.428 4214.25 810.246 4210.35C815.064 4206.44 817.733 4201.56 818.254 4195.7H835.344C835.018 4201.75 832.935 4207.52 829.094 4212.98C825.253 4218.45 820.109 4222.82 813.664 4226.07C807.284 4229.33 800.513 4230.95 793.352 4230.95C778.964 4230.95 767.505 4226.17 758.977 4216.6C750.513 4206.96 746.281 4193.81 746.281 4177.14V4174.12C746.281 4163.83 748.169 4154.68 751.945 4146.68C755.721 4138.67 761.125 4132.45 768.156 4128.02C775.253 4123.6 783.618 4121.38 793.254 4121.38C805.103 4121.38 814.934 4124.93 822.746 4132.03C830.624 4139.12 834.823 4148.34 835.344 4159.66H818.254C817.733 4152.83 815.129 4147.23 810.441 4142.87C805.819 4138.44 800.09 4136.23 793.254 4136.23C784.074 4136.23 776.945 4139.55 771.867 4146.19C766.854 4152.76 764.348 4162.3 764.348 4174.8V4178.22C764.348 4190.39 766.854 4199.77 771.867 4206.34C776.88 4212.92 784.042 4216.21 793.352 4216.21ZM880.168 4097.75V4123.34H899.895V4137.3H880.168V4202.83C880.168 4207.06 881.047 4210.25 882.805 4212.4C884.562 4214.48 887.557 4215.52 891.789 4215.52C893.872 4215.52 896.737 4215.13 900.383 4214.35V4229C895.63 4230.3 891.008 4230.95 886.516 4230.95C878.443 4230.95 872.355 4228.51 868.254 4223.63C864.152 4218.75 862.102 4211.81 862.102 4202.83V4137.3H842.863V4123.34H862.102V4097.75H880.168ZM940.715 4229H922.648V4123.34H940.715V4229ZM921.184 4095.31C921.184 4092.38 922.062 4089.9 923.82 4087.89C925.643 4085.87 928.312 4084.86 931.828 4084.86C935.344 4084.86 938.013 4085.87 939.836 4087.89C941.659 4089.9 942.57 4092.38 942.57 4095.31C942.57 4098.24 941.659 4100.68 939.836 4102.63C938.013 4104.59 935.344 4105.56 931.828 4105.56C928.312 4105.56 925.643 4104.59 923.82 4102.63C922.062 4100.68 921.184 4098.24 921.184 4095.31ZM964.934 4175.19C964.934 4164.84 966.952 4155.53 970.988 4147.26C975.09 4138.99 980.754 4132.61 987.98 4128.12C995.272 4123.63 1003.57 4121.38 1012.88 4121.38C1027.27 4121.38 1038.89 4126.36 1047.75 4136.32C1056.67 4146.29 1061.12 4159.53 1061.12 4176.07V4177.34C1061.12 4187.63 1059.14 4196.87 1055.17 4205.07C1051.26 4213.21 1045.63 4219.56 1038.27 4224.12C1030.98 4228.67 1022.58 4230.95 1013.08 4230.95C998.755 4230.95 987.134 4225.97 978.215 4216.01C969.361 4206.05 964.934 4192.87 964.934 4176.46V4175.19ZM983.098 4177.34C983.098 4189.06 985.799 4198.47 991.203 4205.56C996.672 4212.66 1003.96 4216.21 1013.08 4216.21C1022.26 4216.21 1029.55 4212.63 1034.95 4205.46C1040.36 4198.24 1043.06 4188.15 1043.06 4175.19C1043.06 4163.6 1040.29 4154.23 1034.76 4147.07C1029.29 4139.84 1022 4136.23 1012.88 4136.23C1003.96 4136.23 996.77 4139.77 991.301 4146.87C985.832 4153.97 983.098 4164.12 983.098 4177.34ZM1100.87 4123.34L1101.46 4136.62C1109.53 4126.46 1120.08 4121.38 1133.1 4121.38C1155.43 4121.38 1166.69 4133.98 1166.89 4159.18V4229H1148.82V4159.08C1148.76 4151.46 1147 4145.83 1143.55 4142.18C1140.16 4138.54 1134.86 4136.71 1127.63 4136.71C1121.77 4136.71 1116.63 4138.28 1112.2 4141.4C1107.77 4144.53 1104.32 4148.63 1101.85 4153.71V4229H1083.78V4123.34H1100.87ZM1215.81 4213.67H1283.2V4229H1196.96V4086.81H1215.81V4213.67ZM1296.96 4175.19C1296.96 4164.84 1298.98 4155.53 1303.02 4147.26C1307.12 4138.99 1312.79 4132.61 1320.01 4128.12C1327.3 4123.63 1335.6 4121.38 1344.91 4121.38C1359.3 4121.38 1370.92 4126.36 1379.78 4136.32C1388.7 4146.29 1393.16 4159.53 1393.16 4176.07V4177.34C1393.16 4187.63 1391.17 4196.87 1387.2 4205.07C1383.29 4213.21 1377.66 4219.56 1370.3 4224.12C1363.01 4228.67 1354.61 4230.95 1345.11 4230.95C1330.79 4230.95 1319.17 4225.97 1310.25 4216.01C1301.39 4206.05 1296.96 4192.87 1296.96 4176.46V4175.19ZM1315.13 4177.34C1315.13 4189.06 1317.83 4198.47 1323.23 4205.56C1328.7 4212.66 1335.99 4216.21 1345.11 4216.21C1354.29 4216.21 1361.58 4212.63 1366.98 4205.46C1372.39 4198.24 1375.09 4188.15 1375.09 4175.19C1375.09 4163.6 1372.32 4154.23 1366.79 4147.07C1361.32 4139.84 1354.03 4136.23 1344.91 4136.23C1335.99 4136.23 1328.8 4139.77 1323.33 4146.87C1317.86 4153.97 1315.13 4164.12 1315.13 4177.34ZM1411.52 4175.29C1411.52 4158.82 1415.32 4145.73 1422.94 4136.03C1430.56 4126.27 1440.65 4121.38 1453.21 4121.38C1466.11 4121.38 1476.16 4125.94 1483.39 4135.05L1484.27 4123.34H1500.77V4226.46C1500.77 4240.13 1496.7 4250.91 1488.57 4258.79C1480.49 4266.66 1469.62 4270.6 1455.95 4270.6C1448.33 4270.6 1440.88 4268.97 1433.59 4265.72C1426.29 4262.46 1420.73 4258 1416.89 4252.34L1426.26 4241.5C1434.01 4251.07 1443.48 4255.86 1454.68 4255.86C1463.47 4255.86 1470.3 4253.38 1475.19 4248.43C1480.14 4243.49 1482.61 4236.52 1482.61 4227.54V4218.45C1475.38 4226.79 1465.52 4230.95 1453.02 4230.95C1440.65 4230.95 1430.62 4225.97 1422.94 4216.01C1415.32 4206.05 1411.52 4192.48 1411.52 4175.29ZM1429.68 4177.34C1429.68 4189.25 1432.12 4198.63 1437 4205.46C1441.89 4212.24 1448.72 4215.62 1457.51 4215.62C1468.9 4215.62 1477.27 4210.45 1482.61 4200.09V4151.85C1477.08 4141.76 1468.77 4136.71 1457.71 4136.71C1448.92 4136.71 1442.05 4140.13 1437.1 4146.97C1432.15 4153.8 1429.68 4163.93 1429.68 4177.34ZM1523.82 4175.29C1523.82 4158.82 1527.63 4145.73 1535.25 4136.03C1542.86 4126.27 1552.95 4121.38 1565.52 4121.38C1578.41 4121.38 1588.47 4125.94 1595.7 4135.05L1596.57 4123.34H1613.08V4226.46C1613.08 4240.13 1609.01 4250.91 1600.87 4258.79C1592.8 4266.66 1581.93 4270.6 1568.25 4270.6C1560.64 4270.6 1553.18 4268.97 1545.89 4265.72C1538.6 4262.46 1533.03 4258 1529.19 4252.34L1538.57 4241.5C1546.31 4251.07 1555.79 4255.86 1566.98 4255.86C1575.77 4255.86 1582.61 4253.38 1587.49 4248.43C1592.44 4243.49 1594.91 4236.52 1594.91 4227.54V4218.45C1587.69 4226.79 1577.82 4230.95 1565.32 4230.95C1552.95 4230.95 1542.93 4225.97 1535.25 4216.01C1527.63 4206.05 1523.82 4192.48 1523.82 4175.29ZM1541.98 4177.34C1541.98 4189.25 1544.43 4198.63 1549.31 4205.46C1554.19 4212.24 1561.03 4215.62 1569.82 4215.62C1581.21 4215.62 1589.58 4210.45 1594.91 4200.09V4151.85C1589.38 4141.76 1581.08 4136.71 1570.01 4136.71C1561.22 4136.71 1554.35 4140.13 1549.41 4146.97C1544.46 4153.8 1541.98 4163.93 1541.98 4177.34ZM1684.27 4230.95C1669.95 4230.95 1658.29 4226.27 1649.31 4216.89C1640.32 4207.45 1635.83 4194.85 1635.83 4179.1V4175.78C1635.83 4165.3 1637.82 4155.95 1641.79 4147.75C1645.83 4139.48 1651.42 4133.04 1658.59 4128.41C1665.81 4123.73 1673.62 4121.38 1682.02 4121.38C1695.76 4121.38 1706.44 4125.91 1714.05 4134.96C1721.67 4144.01 1725.48 4156.96 1725.48 4173.82V4181.34H1653.9C1654.16 4191.76 1657.19 4200.19 1662.98 4206.64C1668.84 4213.02 1676.26 4216.21 1685.25 4216.21C1691.63 4216.21 1697.03 4214.9 1701.46 4212.3C1705.88 4209.7 1709.76 4206.25 1713.08 4201.95L1724.11 4210.54C1715.26 4224.15 1701.98 4230.95 1684.27 4230.95ZM1682.02 4136.23C1674.73 4136.23 1668.61 4138.9 1663.66 4144.23C1658.72 4149.51 1655.66 4156.93 1654.48 4166.5H1707.41V4165.13C1706.89 4155.95 1704.42 4148.86 1699.99 4143.84C1695.57 4138.77 1689.58 4136.23 1682.02 4136.23ZM1797.55 4139.55C1794.82 4139.09 1791.85 4138.86 1788.66 4138.86C1776.82 4138.86 1768.77 4143.91 1764.54 4154V4229H1746.48V4123.34H1764.05L1764.35 4135.54C1770.27 4126.1 1778.67 4121.38 1789.54 4121.38C1793.06 4121.38 1795.73 4121.84 1797.55 4122.75V4139.55Z" fill="black"/>
<rect x="3296" y="3656" width="2004" height="1010" rx="97" fill="white" stroke="black" stroke-width="6"/>
<path d="M3560.5 4229V4086.81H3600.64C3613.01 4086.81 3623.95 4089.55 3633.45 4095.02C3642.96 4100.48 3650.28 4108.26 3655.43 4118.36C3660.63 4128.45 3663.27 4140.04 3663.34 4153.12V4162.2C3663.34 4175.61 3660.73 4187.37 3655.52 4197.46C3650.38 4207.55 3642.99 4215.3 3633.36 4220.7C3623.79 4226.1 3612.62 4228.87 3599.86 4229H3560.5ZM3579.25 4102.24V4213.67H3598.98C3613.43 4213.67 3624.66 4209.18 3632.67 4200.19C3640.74 4191.21 3644.78 4178.41 3644.78 4161.81V4153.51C3644.78 4137.37 3640.97 4124.83 3633.36 4115.91C3625.8 4106.93 3615.06 4102.37 3601.13 4102.24H3579.25ZM3732.77 4230.95C3718.45 4230.95 3706.79 4226.27 3697.81 4216.89C3688.82 4207.45 3684.33 4194.85 3684.33 4179.1V4175.78C3684.33 4165.3 3686.32 4155.95 3690.29 4147.75C3694.33 4139.48 3699.92 4133.04 3707.09 4128.41C3714.31 4123.73 3722.12 4121.38 3730.52 4121.38C3744.26 4121.38 3754.94 4125.91 3762.55 4134.96C3770.17 4144.01 3773.98 4156.96 3773.98 4173.82V4181.34H3702.4C3702.66 4191.76 3705.69 4200.19 3711.48 4206.64C3717.34 4213.02 3724.76 4216.21 3733.75 4216.21C3740.13 4216.21 3745.53 4214.9 3749.96 4212.3C3754.38 4209.7 3758.26 4206.25 3761.58 4201.95L3772.61 4210.54C3763.76 4224.15 3750.48 4230.95 3732.77 4230.95ZM3730.52 4136.23C3723.23 4136.23 3717.11 4138.9 3712.16 4144.23C3707.22 4149.51 3704.16 4156.93 3702.98 4166.5H3755.91V4165.13C3755.39 4155.95 3752.92 4148.86 3748.49 4143.84C3744.07 4138.77 3738.08 4136.23 3730.52 4136.23ZM3828.47 4204.49L3854.64 4123.34H3873.1L3835.21 4229H3821.44L3783.16 4123.34H3801.62L3828.47 4204.49ZM3932.96 4230.95C3918.64 4230.95 3906.99 4226.27 3898 4216.89C3889.02 4207.45 3884.53 4194.85 3884.53 4179.1V4175.78C3884.53 4165.3 3886.51 4155.95 3890.48 4147.75C3894.52 4139.48 3900.12 4133.04 3907.28 4128.41C3914.51 4123.73 3922.32 4121.38 3930.72 4121.38C3944.46 4121.38 3955.13 4125.91 3962.75 4134.96C3970.37 4144.01 3974.18 4156.96 3974.18 4173.82V4181.34H3902.59C3902.85 4191.76 3905.88 4200.19 3911.68 4206.64C3917.54 4213.02 3924.96 4216.21 3933.94 4216.21C3940.32 4216.21 3945.73 4214.9 3950.15 4212.3C3954.58 4209.7 3958.45 4206.25 3961.77 4201.95L3972.81 4210.54C3963.95 4224.15 3950.67 4230.95 3932.96 4230.95ZM3930.72 4136.23C3923.43 4136.23 3917.31 4138.9 3912.36 4144.23C3907.41 4149.51 3904.35 4156.93 3903.18 4166.5H3956.11V4165.13C3955.59 4155.95 3953.11 4148.86 3948.69 4143.84C3944.26 4138.77 3938.27 4136.23 3930.72 4136.23ZM4014.8 4229H3996.73V4079H4014.8V4229ZM4039.02 4175.19C4039.02 4164.84 4041.04 4155.53 4045.07 4147.26C4049.18 4138.99 4054.84 4132.61 4062.07 4128.12C4069.36 4123.63 4077.66 4121.38 4086.97 4121.38C4101.36 4121.38 4112.98 4126.36 4121.83 4136.32C4130.75 4146.29 4135.21 4159.53 4135.21 4176.07V4177.34C4135.21 4187.63 4133.23 4196.87 4129.25 4205.07C4125.35 4213.21 4119.72 4219.56 4112.36 4224.12C4105.07 4228.67 4096.67 4230.95 4087.16 4230.95C4072.84 4230.95 4061.22 4225.97 4052.3 4216.01C4043.45 4206.05 4039.02 4192.87 4039.02 4176.46V4175.19ZM4057.18 4177.34C4057.18 4189.06 4059.89 4198.47 4065.29 4205.56C4070.76 4212.66 4078.05 4216.21 4087.16 4216.21C4096.34 4216.21 4103.64 4212.63 4109.04 4205.46C4114.44 4198.24 4117.14 4188.15 4117.14 4175.19C4117.14 4163.6 4114.38 4154.23 4108.84 4147.07C4103.38 4139.84 4096.08 4136.23 4086.97 4136.23C4078.05 4136.23 4070.86 4139.77 4065.39 4146.87C4059.92 4153.97 4057.18 4164.12 4057.18 4177.34ZM4247.12 4177.34C4247.12 4193.42 4243.45 4206.38 4236.09 4216.21C4228.73 4226.04 4218.77 4230.95 4206.21 4230.95C4193.38 4230.95 4183.29 4226.88 4175.93 4218.75V4269.62H4157.87V4123.34H4174.37L4175.25 4135.05C4182.61 4125.94 4192.83 4121.38 4205.91 4121.38C4218.61 4121.38 4228.64 4126.17 4235.99 4135.74C4243.41 4145.31 4247.12 4158.62 4247.12 4175.68V4177.34ZM4229.06 4175.29C4229.06 4163.38 4226.52 4153.97 4221.44 4147.07C4216.36 4140.17 4209.4 4136.71 4200.54 4136.71C4189.61 4136.71 4181.4 4141.57 4175.93 4151.27V4201.75C4181.34 4211.39 4189.61 4216.21 4200.74 4216.21C4209.4 4216.21 4216.27 4212.79 4221.34 4205.95C4226.49 4199.05 4229.06 4188.83 4229.06 4175.29ZM4314.02 4230.95C4299.7 4230.95 4288.04 4226.27 4279.06 4216.89C4270.07 4207.45 4265.58 4194.85 4265.58 4179.1V4175.78C4265.58 4165.3 4267.57 4155.95 4271.54 4147.75C4275.58 4139.48 4281.17 4133.04 4288.34 4128.41C4295.56 4123.73 4303.38 4121.38 4311.77 4121.38C4325.51 4121.38 4336.19 4125.91 4343.8 4134.96C4351.42 4144.01 4355.23 4156.96 4355.23 4173.82V4181.34H4283.65C4283.91 4191.76 4286.94 4200.19 4292.73 4206.64C4298.59 4213.02 4306.01 4216.21 4315 4216.21C4321.38 4216.21 4326.78 4214.9 4331.21 4212.3C4335.63 4209.7 4339.51 4206.25 4342.83 4201.95L4353.86 4210.54C4345.01 4224.15 4331.73 4230.95 4314.02 4230.95ZM4311.77 4136.23C4304.48 4136.23 4298.36 4138.9 4293.41 4144.23C4288.47 4149.51 4285.41 4156.93 4284.23 4166.5H4337.16V4165.13C4336.64 4155.95 4334.17 4148.86 4329.74 4143.84C4325.32 4138.77 4319.33 4136.23 4311.77 4136.23ZM4427.3 4139.55C4424.57 4139.09 4421.6 4138.86 4418.41 4138.86C4406.57 4138.86 4398.52 4143.91 4394.29 4154V4229H4376.23V4123.34H4393.8L4394.1 4135.54C4400.02 4126.1 4408.42 4121.38 4419.29 4121.38C4422.81 4121.38 4425.48 4121.84 4427.3 4122.75V4139.55ZM4465.68 4213.67H4533.06V4229H4446.83V4086.81H4465.68V4213.67ZM4546.83 4175.19C4546.83 4164.84 4548.85 4155.53 4552.89 4147.26C4556.99 4138.99 4562.65 4132.61 4569.88 4128.12C4577.17 4123.63 4585.47 4121.38 4594.78 4121.38C4609.17 4121.38 4620.79 4126.36 4629.64 4136.32C4638.56 4146.29 4643.02 4159.53 4643.02 4176.07V4177.34C4643.02 4187.63 4641.04 4196.87 4637.07 4205.07C4633.16 4213.21 4627.53 4219.56 4620.17 4224.12C4612.88 4228.67 4604.48 4230.95 4594.98 4230.95C4580.65 4230.95 4569.03 4225.97 4560.11 4216.01C4551.26 4206.05 4546.83 4192.87 4546.83 4176.46V4175.19ZM4565 4177.34C4565 4189.06 4567.7 4198.47 4573.1 4205.56C4578.57 4212.66 4585.86 4216.21 4594.98 4216.21C4604.16 4216.21 4611.45 4212.63 4616.85 4205.46C4622.26 4198.24 4624.96 4188.15 4624.96 4175.19C4624.96 4163.6 4622.19 4154.23 4616.66 4147.07C4611.19 4139.84 4603.9 4136.23 4594.78 4136.23C4585.86 4136.23 4578.67 4139.77 4573.2 4146.87C4567.73 4153.97 4565 4164.12 4565 4177.34ZM4661.38 4175.29C4661.38 4158.82 4665.19 4145.73 4672.81 4136.03C4680.43 4126.27 4690.52 4121.38 4703.08 4121.38C4715.97 4121.38 4726.03 4125.94 4733.26 4135.05L4734.14 4123.34H4750.64V4226.46C4750.64 4240.13 4746.57 4250.91 4738.43 4258.79C4730.36 4266.66 4719.49 4270.6 4705.82 4270.6C4698.2 4270.6 4690.74 4268.97 4683.45 4265.72C4676.16 4262.46 4670.6 4258 4666.75 4252.34L4676.13 4241.5C4683.88 4251.07 4693.35 4255.86 4704.55 4255.86C4713.34 4255.86 4720.17 4253.38 4725.05 4248.43C4730 4243.49 4732.48 4236.52 4732.48 4227.54V4218.45C4725.25 4226.79 4715.39 4230.95 4702.89 4230.95C4690.52 4230.95 4680.49 4225.97 4672.81 4216.01C4665.19 4206.05 4661.38 4192.48 4661.38 4175.29ZM4679.55 4177.34C4679.55 4189.25 4681.99 4198.63 4686.87 4205.46C4691.75 4212.24 4698.59 4215.62 4707.38 4215.62C4718.77 4215.62 4727.14 4210.45 4732.48 4200.09V4151.85C4726.94 4141.76 4718.64 4136.71 4707.57 4136.71C4698.79 4136.71 4691.92 4140.13 4686.97 4146.97C4682.02 4153.8 4679.55 4163.93 4679.55 4177.34ZM4773.69 4175.29C4773.69 4158.82 4777.5 4145.73 4785.11 4136.03C4792.73 4126.27 4802.82 4121.38 4815.39 4121.38C4828.28 4121.38 4838.34 4125.94 4845.56 4135.05L4846.44 4123.34H4862.95V4226.46C4862.95 4240.13 4858.88 4250.91 4850.74 4258.79C4842.67 4266.66 4831.79 4270.6 4818.12 4270.6C4810.5 4270.6 4803.05 4268.97 4795.76 4265.72C4788.47 4262.46 4782.9 4258 4779.06 4252.34L4788.43 4241.5C4796.18 4251.07 4805.65 4255.86 4816.85 4255.86C4825.64 4255.86 4832.48 4253.38 4837.36 4248.43C4842.31 4243.49 4844.78 4236.52 4844.78 4227.54V4218.45C4837.55 4226.79 4827.69 4230.95 4815.19 4230.95C4802.82 4230.95 4792.8 4225.97 4785.11 4216.01C4777.5 4206.05 4773.69 4192.48 4773.69 4175.29ZM4791.85 4177.34C4791.85 4189.25 4794.29 4198.63 4799.18 4205.46C4804.06 4212.24 4810.89 4215.62 4819.68 4215.62C4831.08 4215.62 4839.44 4210.45 4844.78 4200.09V4151.85C4839.25 4141.76 4830.95 4136.71 4819.88 4136.71C4811.09 4136.71 4804.22 4140.13 4799.27 4146.97C4794.33 4153.8 4791.85 4163.93 4791.85 4177.34ZM4934.14 4230.95C4919.81 4230.95 4908.16 4226.27 4899.18 4216.89C4890.19 4207.45 4885.7 4194.85 4885.7 4179.1V4175.78C4885.7 4165.3 4887.68 4155.95 4891.66 4147.75C4895.69 4139.48 4901.29 4133.04 4908.45 4128.41C4915.68 4123.73 4923.49 4121.38 4931.89 4121.38C4945.63 4121.38 4956.3 4125.91 4963.92 4134.96C4971.54 4144.01 4975.35 4156.96 4975.35 4173.82V4181.34H4903.77C4904.03 4191.76 4907.05 4200.19 4912.85 4206.64C4918.71 4213.02 4926.13 4216.21 4935.11 4216.21C4941.49 4216.21 4946.9 4214.9 4951.32 4212.3C4955.75 4209.7 4959.62 4206.25 4962.95 4201.95L4973.98 4210.54C4965.13 4224.15 4951.85 4230.95 4934.14 4230.95ZM4931.89 4136.23C4924.6 4136.23 4918.48 4138.9 4913.53 4144.23C4908.58 4149.51 4905.52 4156.93 4904.35 4166.5H4957.28V4165.13C4956.76 4155.95 4954.29 4148.86 4949.86 4143.84C4945.43 4138.77 4939.44 4136.23 4931.89 4136.23ZM5047.42 4139.55C5044.68 4139.09 5041.72 4138.86 5038.53 4138.86C5026.68 4138.86 5018.64 4143.91 5014.41 4154V4229H4996.34V4123.34H5013.92L5014.21 4135.54C5020.14 4126.1 5028.54 4121.38 5039.41 4121.38C5042.93 4121.38 5045.6 4121.84 5047.42 4122.75V4139.55Z" fill="black"/>
<path fill-rule="evenodd" clip-rule="evenodd" d="M2658.07 1860.07L2721.71 1796.43C2725.62 1792.53 2725.62 1786.19 2721.71 1782.29C2717.81 1778.38 2711.47 1778.38 2707.57 1782.29L2661 1828.86V1016H2641V1828.86L2594.43 1782.29C2590.53 1778.38 2584.19 1778.38 2580.29 1782.29C2576.38 1786.19 2576.38 1792.53 2580.29 1796.43L2643.93 1860.07C2647.83 1863.98 2654.17 1863.98 2658.07 1860.07ZM2641 3255V2869H2661V3255H4344H4354H4364V3628.86L4410.57 3582.29C4414.47 3578.38 4420.81 3578.38 4424.71 3582.29C4428.62 3586.19 4428.62 3592.53 4424.71 3596.43L4361.07 3660.07C4357.17 3663.98 4350.83 3663.98 4346.93 3660.07L4283.29 3596.43C4279.38 3592.53 4279.38 3586.19 4283.29 3582.29C4287.2 3578.38 4293.53 3578.38 4297.43 3582.29L4344 3628.86V3275H2651H958.001L958.001 3628.86L1004.57 3582.29C1008.47 3578.38 1014.81 3578.38 1018.71 3582.29C1022.62 3586.19 1022.62 3592.53 1018.71 3596.43L955.072 3660.07C951.167 3663.98 944.835 3663.98 940.93 3660.07L877.29 3596.43C873.385 3592.53 873.385 3586.19 877.29 3582.29C881.196 3578.38 887.527 3578.38 891.432 3582.29L938.001 3628.86L938.001 3255H948.001H958.001H2641Z" fill="black"/>
</svg>
