<svg width="6665" height="4669" viewBox="0 0 6665 4669" fill="none" xmlns="http://www.w3.org/2000/svg">
<rect x="3011" y="3" width="2004" height="1010" rx="97" fill="white" stroke="black" stroke-width="6"/>
<path d="M3930.02 538.891H3870.45L3857.07 576H3837.73L3892.03 433.812H3908.44L3962.83 576H3943.59L3930.02 538.891ZM3876.11 523.461H3924.45L3900.23 456.957L3876.11 523.461ZM4068.4 524.34C4068.4 540.421 4064.72 553.376 4057.36 563.207C4050.01 573.038 4040.05 577.953 4027.48 577.953C4014.65 577.953 4004.56 573.884 3997.21 565.746V616.625H3979.14V470.336H3995.64L3996.52 482.055C4003.88 472.94 4014.1 468.383 4027.19 468.383C4039.88 468.383 4049.91 473.168 4057.27 482.738C4064.69 492.309 4068.4 505.622 4068.4 522.68V524.34ZM4050.33 522.289C4050.33 510.375 4047.79 500.967 4042.71 494.066C4037.64 487.165 4030.67 483.715 4021.82 483.715C4010.88 483.715 4002.68 488.565 3997.21 498.266V548.754C4002.61 558.389 4010.88 563.207 4022.01 563.207C4030.67 563.207 4037.54 559.789 4042.62 552.953C4047.76 546.052 4050.33 535.831 4050.33 522.289ZM4180.7 524.34C4180.7 540.421 4177.02 553.376 4169.67 563.207C4162.31 573.038 4152.35 577.953 4139.79 577.953C4126.96 577.953 4116.87 573.884 4109.51 565.746V616.625H4091.45V470.336H4107.95L4108.83 482.055C4116.18 472.94 4126.41 468.383 4139.49 468.383C4152.19 468.383 4162.21 473.168 4169.57 482.738C4176.99 492.309 4180.7 505.622 4180.7 522.68V524.34ZM4162.64 522.289C4162.64 510.375 4160.1 500.967 4155.02 494.066C4149.94 487.165 4142.98 483.715 4134.12 483.715C4123.18 483.715 4114.98 488.565 4109.51 498.266V548.754C4114.92 558.389 4123.18 563.207 4134.32 563.207C4142.98 563.207 4149.84 559.789 4154.92 552.953C4160.07 546.052 4162.64 535.831 4162.64 522.289Z" fill="black"/>
<rect x="3011" y="1856" width="2004" height="1010" rx="97" fill="white" stroke="black" stroke-width="6"/>
<rect x="3" y="1856" width="2004" height="1010" rx="97" fill="white" stroke="black" stroke-width="6"/>
<path d="M258.02 2391.89H198.449L185.07 2429H165.734L220.031 2286.81H236.438L290.832 2429H271.594L258.02 2391.89ZM204.113 2376.46H252.453L228.234 2309.96L204.113 2376.46ZM396.594 2377.34C396.594 2393.49 392.883 2406.47 385.461 2416.3C378.039 2426.07 368.078 2430.95 355.578 2430.95C342.232 2430.95 331.913 2426.23 324.621 2416.79L323.742 2429H307.141V2279H325.207V2334.96C332.499 2325.91 342.557 2321.38 355.383 2321.38C368.208 2321.38 378.267 2326.23 385.559 2335.93C392.915 2345.63 396.594 2358.92 396.594 2375.78V2377.34ZM378.527 2375.29C378.527 2362.98 376.151 2353.48 371.398 2346.77C366.646 2340.07 359.81 2336.71 350.891 2336.71C338.977 2336.71 330.415 2342.25 325.207 2353.32V2399.02C330.741 2410.09 339.367 2415.62 351.086 2415.62C359.745 2415.62 366.483 2412.27 371.301 2405.56C376.118 2398.86 378.527 2388.77 378.527 2375.29ZM480.969 2400.97C480.969 2396.09 479.113 2392.31 475.402 2389.64C471.757 2386.91 465.344 2384.57 456.164 2382.61C447.049 2380.66 439.79 2378.32 434.387 2375.58C429.048 2372.85 425.077 2369.59 422.473 2365.82C419.934 2362.04 418.664 2357.55 418.664 2352.34C418.664 2343.68 422.31 2336.36 429.602 2330.37C436.958 2324.38 446.333 2321.38 457.727 2321.38C469.706 2321.38 479.406 2324.48 486.828 2330.66C494.315 2336.85 498.059 2344.76 498.059 2354.39H479.895C479.895 2349.44 477.779 2345.18 473.547 2341.6C469.38 2338.02 464.107 2336.23 457.727 2336.23C451.151 2336.23 446.008 2337.66 442.297 2340.52C438.586 2343.39 436.73 2347.13 436.73 2351.75C436.73 2356.12 438.456 2359.4 441.906 2361.62C445.357 2363.83 451.574 2365.95 460.559 2367.96C469.608 2369.98 476.932 2372.39 482.531 2375.19C488.13 2377.99 492.264 2381.38 494.934 2385.35C497.668 2389.25 499.035 2394.04 499.035 2399.7C499.035 2409.14 495.259 2416.73 487.707 2422.46C480.155 2428.12 470.357 2430.95 458.312 2430.95C449.849 2430.95 442.362 2429.46 435.852 2426.46C429.341 2423.47 424.23 2419.3 420.52 2413.96C416.874 2408.56 415.051 2402.73 415.051 2396.48H433.117C433.443 2402.54 435.852 2407.35 440.344 2410.93C444.901 2414.45 450.891 2416.21 458.312 2416.21C465.148 2416.21 470.617 2414.84 474.719 2412.11C478.885 2409.31 480.969 2405.6 480.969 2400.97ZM547.082 2297.75V2323.34H566.809V2337.3H547.082V2402.83C547.082 2407.06 547.961 2410.25 549.719 2412.4C551.477 2414.48 554.471 2415.52 558.703 2415.52C560.786 2415.52 563.651 2415.13 567.297 2414.35V2429C562.544 2430.3 557.922 2430.95 553.43 2430.95C545.357 2430.95 539.27 2428.51 535.168 2423.63C531.066 2418.75 529.016 2411.81 529.016 2402.83V2337.3H509.777V2323.34H529.016V2297.75H547.082ZM639.074 2339.55C636.34 2339.09 633.378 2338.86 630.188 2338.86C618.339 2338.86 610.298 2343.91 606.066 2354V2429H588V2323.34H605.578L605.871 2335.54C611.796 2326.1 620.194 2321.38 631.066 2321.38C634.582 2321.38 637.251 2321.84 639.074 2322.75V2339.55ZM717.102 2429C716.06 2426.92 715.214 2423.21 714.562 2417.87C706.164 2426.59 696.138 2430.95 684.484 2430.95C674.068 2430.95 665.507 2428.02 658.801 2422.16C652.16 2416.24 648.84 2408.75 648.84 2399.7C648.84 2388.7 653.007 2380.17 661.34 2374.12C669.738 2368 681.522 2364.94 696.691 2364.94H714.27V2356.64C714.27 2350.32 712.382 2345.31 708.605 2341.6C704.829 2337.82 699.263 2335.93 691.906 2335.93C685.461 2335.93 680.057 2337.56 675.695 2340.82C671.333 2344.07 669.152 2348.01 669.152 2352.63H650.988C650.988 2347.36 652.844 2342.28 656.555 2337.4C660.331 2332.45 665.409 2328.54 671.789 2325.68C678.234 2322.82 685.298 2321.38 692.98 2321.38C705.155 2321.38 714.693 2324.44 721.594 2330.56C728.495 2336.62 732.076 2344.98 732.336 2355.66V2404.29C732.336 2413.99 733.573 2421.71 736.047 2427.44V2429H717.102ZM687.121 2415.23C692.785 2415.23 698.156 2413.77 703.234 2410.84C708.312 2407.91 711.991 2404.1 714.27 2399.41V2377.73H700.109C677.974 2377.73 666.906 2384.21 666.906 2397.16C666.906 2402.83 668.794 2407.26 672.57 2410.45C676.346 2413.64 681.197 2415.23 687.121 2415.23ZM803.039 2416.21C809.484 2416.21 815.116 2414.25 819.934 2410.35C824.751 2406.44 827.421 2401.56 827.941 2395.7H845.031C844.706 2401.75 842.622 2407.52 838.781 2412.98C834.94 2418.45 829.797 2422.82 823.352 2426.07C816.971 2429.33 810.201 2430.95 803.039 2430.95C788.651 2430.95 777.193 2426.17 768.664 2416.6C760.201 2406.96 755.969 2393.81 755.969 2377.14V2374.12C755.969 2363.83 757.857 2354.68 761.633 2346.68C765.409 2338.67 770.812 2332.45 777.844 2328.02C784.94 2323.6 793.306 2321.38 802.941 2321.38C814.79 2321.38 824.621 2324.93 832.434 2332.03C840.311 2339.12 844.51 2348.34 845.031 2359.66H827.941C827.421 2352.83 824.816 2347.23 820.129 2342.87C815.507 2338.44 809.777 2336.23 802.941 2336.23C793.762 2336.23 786.633 2339.55 781.555 2346.19C776.542 2352.76 774.035 2362.3 774.035 2374.8V2378.22C774.035 2390.39 776.542 2399.77 781.555 2406.34C786.568 2412.92 793.729 2416.21 803.039 2416.21ZM889.855 2297.75V2323.34H909.582V2337.3H889.855V2402.83C889.855 2407.06 890.734 2410.25 892.492 2412.4C894.25 2414.48 897.245 2415.52 901.477 2415.52C903.56 2415.52 906.424 2415.13 910.07 2414.35V2429C905.318 2430.3 900.695 2430.95 896.203 2430.95C888.13 2430.95 882.043 2428.51 877.941 2423.63C873.84 2418.75 871.789 2411.81 871.789 2402.83V2337.3H852.551V2323.34H871.789V2297.75H889.855ZM933.605 2429V2286.81H973.742C986.112 2286.81 997.049 2289.55 1006.55 2295.02C1016.06 2300.48 1023.38 2308.26 1028.53 2318.36C1033.74 2328.45 1036.37 2340.04 1036.44 2353.12V2362.2C1036.44 2375.61 1033.83 2387.37 1028.62 2397.46C1023.48 2407.55 1016.09 2415.3 1006.46 2420.7C996.887 2426.1 985.721 2428.87 972.961 2429H933.605ZM952.355 2302.24V2413.67H972.082C986.535 2413.67 997.766 2409.18 1005.77 2400.19C1013.85 2391.21 1017.88 2378.41 1017.88 2361.81V2353.51C1017.88 2337.37 1014.07 2324.83 1006.46 2315.91C998.905 2306.93 988.163 2302.37 974.23 2302.24H952.355ZM1081.65 2429H1063.59V2323.34H1081.65V2429ZM1062.12 2295.31C1062.12 2292.38 1063 2289.9 1064.76 2287.89C1066.58 2285.87 1069.25 2284.86 1072.77 2284.86C1076.28 2284.86 1078.95 2285.87 1080.77 2287.89C1082.6 2289.9 1083.51 2292.38 1083.51 2295.31C1083.51 2298.24 1082.6 2300.68 1080.77 2302.63C1078.95 2304.59 1076.28 2305.56 1072.77 2305.56C1069.25 2305.56 1066.58 2304.59 1064.76 2302.63C1063 2300.68 1062.12 2298.24 1062.12 2295.31ZM1161.73 2339.55C1159 2339.09 1156.03 2338.86 1152.84 2338.86C1140.99 2338.86 1132.95 2343.91 1128.72 2354V2429H1110.66V2323.34H1128.23L1128.53 2335.54C1134.45 2326.1 1142.85 2321.38 1153.72 2321.38C1157.24 2321.38 1159.91 2321.84 1161.73 2322.75V2339.55ZM1223.16 2365.62C1207.08 2361 1195.36 2355.33 1188 2348.63C1180.71 2341.86 1177.06 2333.52 1177.06 2323.63C1177.06 2312.43 1181.52 2303.19 1190.44 2295.89C1199.43 2288.54 1211.08 2284.86 1225.4 2284.86C1235.17 2284.86 1243.86 2286.75 1251.48 2290.52C1259.16 2294.3 1265.08 2299.51 1269.25 2306.15C1273.48 2312.79 1275.6 2320.05 1275.6 2327.93H1256.75C1256.75 2319.33 1254.02 2312.59 1248.55 2307.71C1243.08 2302.76 1235.36 2300.29 1225.4 2300.29C1216.16 2300.29 1208.93 2302.34 1203.72 2306.44C1198.58 2310.48 1196.01 2316.11 1196.01 2323.34C1196.01 2329.13 1198.45 2334.05 1203.33 2338.08C1208.28 2342.05 1216.65 2345.7 1228.43 2349.02C1240.28 2352.34 1249.52 2356.02 1256.16 2360.05C1262.87 2364.03 1267.82 2368.68 1271.01 2374.02C1274.26 2379.36 1275.89 2385.64 1275.89 2392.87C1275.89 2404.39 1271.4 2413.64 1262.41 2420.6C1253.43 2427.5 1241.42 2430.95 1226.38 2430.95C1216.61 2430.95 1207.5 2429.1 1199.04 2425.39C1190.57 2421.61 1184.03 2416.47 1179.41 2409.96C1174.85 2403.45 1172.57 2396.06 1172.57 2387.79H1191.42C1191.42 2396.38 1194.58 2403.19 1200.89 2408.2C1207.27 2413.15 1215.77 2415.62 1226.38 2415.62C1236.27 2415.62 1243.86 2413.6 1249.13 2409.57C1254.41 2405.53 1257.04 2400.03 1257.04 2393.06C1257.04 2386.1 1254.6 2380.73 1249.72 2376.95C1244.84 2373.11 1235.98 2369.33 1223.16 2365.62ZM1339.56 2416.21C1346.01 2416.21 1351.64 2414.25 1356.46 2410.35C1361.27 2406.44 1363.94 2401.56 1364.46 2395.7H1381.55C1381.23 2401.75 1379.15 2407.52 1375.3 2412.98C1371.46 2418.45 1366.32 2422.82 1359.88 2426.07C1353.49 2429.33 1346.72 2430.95 1339.56 2430.95C1325.17 2430.95 1313.72 2426.17 1305.19 2416.6C1296.72 2406.96 1292.49 2393.81 1292.49 2377.14V2374.12C1292.49 2363.83 1294.38 2354.68 1298.16 2346.68C1301.93 2338.67 1307.34 2332.45 1314.37 2328.02C1321.46 2323.6 1329.83 2321.38 1339.46 2321.38C1351.31 2321.38 1361.14 2324.93 1368.96 2332.03C1376.83 2339.12 1381.03 2348.34 1381.55 2359.66H1364.46C1363.94 2352.83 1361.34 2347.23 1356.65 2342.87C1352.03 2338.44 1346.3 2336.23 1339.46 2336.23C1330.29 2336.23 1323.16 2339.55 1318.08 2346.19C1313.07 2352.76 1310.56 2362.3 1310.56 2374.8V2378.22C1310.56 2390.39 1313.07 2399.77 1318.08 2406.34C1323.09 2412.92 1330.25 2416.21 1339.56 2416.21ZM1452.94 2339.55C1450.21 2339.09 1447.24 2338.86 1444.05 2338.86C1432.21 2338.86 1424.17 2343.91 1419.93 2354V2429H1401.87V2323.34H1419.45L1419.74 2335.54C1425.66 2326.1 1434.06 2321.38 1444.93 2321.38C1448.45 2321.38 1451.12 2321.84 1452.94 2322.75V2339.55ZM1530.97 2429C1529.93 2426.92 1529.08 2423.21 1528.43 2417.87C1520.03 2426.59 1510.01 2430.95 1498.35 2430.95C1487.93 2430.95 1479.37 2428.02 1472.67 2422.16C1466.03 2416.24 1462.71 2408.75 1462.71 2399.7C1462.71 2388.7 1466.87 2380.17 1475.21 2374.12C1483.61 2368 1495.39 2364.94 1510.56 2364.94H1528.14V2356.64C1528.14 2350.32 1526.25 2345.31 1522.47 2341.6C1518.7 2337.82 1513.13 2335.93 1505.77 2335.93C1499.33 2335.93 1493.92 2337.56 1489.56 2340.82C1485.2 2344.07 1483.02 2348.01 1483.02 2352.63H1464.86C1464.86 2347.36 1466.71 2342.28 1470.42 2337.4C1474.2 2332.45 1479.28 2328.54 1485.66 2325.68C1492.1 2322.82 1499.17 2321.38 1506.85 2321.38C1519.02 2321.38 1528.56 2324.44 1535.46 2330.56C1542.36 2336.62 1545.94 2344.98 1546.2 2355.66V2404.29C1546.2 2413.99 1547.44 2421.71 1549.91 2427.44V2429H1530.97ZM1500.99 2415.23C1506.65 2415.23 1512.02 2413.77 1517.1 2410.84C1522.18 2407.91 1525.86 2404.1 1528.14 2399.41V2377.73H1513.98C1491.84 2377.73 1480.77 2384.21 1480.77 2397.16C1480.77 2402.83 1482.66 2407.26 1486.44 2410.45C1490.21 2413.64 1495.06 2415.23 1500.99 2415.23ZM1663.78 2377.34C1663.78 2393.42 1660.1 2406.38 1652.75 2416.21C1645.39 2426.04 1635.43 2430.95 1622.86 2430.95C1610.04 2430.95 1599.95 2426.88 1592.59 2418.75V2469.62H1574.52V2323.34H1591.03L1591.91 2335.05C1599.26 2325.94 1609.48 2321.38 1622.57 2321.38C1635.27 2321.38 1645.29 2326.17 1652.65 2335.74C1660.07 2345.31 1663.78 2358.62 1663.78 2375.68V2377.34ZM1645.71 2375.29C1645.71 2363.38 1643.18 2353.97 1638.1 2347.07C1633.02 2340.17 1626.05 2336.71 1617.2 2336.71C1606.26 2336.71 1598.06 2341.57 1592.59 2351.27V2401.75C1597.99 2411.39 1606.26 2416.21 1617.39 2416.21C1626.05 2416.21 1632.92 2412.79 1638 2405.95C1643.14 2399.05 1645.71 2388.83 1645.71 2375.29ZM1730.68 2430.95C1716.35 2430.95 1704.7 2426.27 1695.71 2416.89C1686.73 2407.45 1682.24 2394.85 1682.24 2379.1V2375.78C1682.24 2365.3 1684.22 2355.95 1688.2 2347.75C1692.23 2339.48 1697.83 2333.04 1704.99 2328.41C1712.22 2323.73 1720.03 2321.38 1728.43 2321.38C1742.17 2321.38 1752.84 2325.91 1760.46 2334.96C1768.08 2344.01 1771.89 2356.96 1771.89 2373.82V2381.34H1700.3C1700.57 2391.76 1703.59 2400.19 1709.39 2406.64C1715.25 2413.02 1722.67 2416.21 1731.65 2416.21C1738.03 2416.21 1743.44 2414.9 1747.86 2412.3C1752.29 2409.7 1756.16 2406.25 1759.48 2401.95L1770.52 2410.54C1761.67 2424.15 1748.38 2430.95 1730.68 2430.95ZM1728.43 2336.23C1721.14 2336.23 1715.02 2338.9 1710.07 2344.23C1705.12 2349.51 1702.06 2356.93 1700.89 2366.5H1753.82V2365.13C1753.3 2355.95 1750.83 2348.86 1746.4 2343.84C1741.97 2338.77 1735.98 2336.23 1728.43 2336.23ZM1843.96 2339.55C1841.22 2339.09 1838.26 2338.86 1835.07 2338.86C1823.22 2338.86 1815.18 2343.91 1810.95 2354V2429H1792.88V2323.34H1810.46L1810.75 2335.54C1816.68 2326.1 1825.08 2321.38 1835.95 2321.38C1839.46 2321.38 1842.13 2321.84 1843.96 2322.75V2339.55Z" fill="black"/>
<path d="M3566.28 2375.29C3566.28 2359.08 3570.12 2346.06 3577.8 2336.23C3585.48 2326.33 3595.54 2321.38 3607.98 2321.38C3620.35 2321.38 3630.14 2325.61 3637.37 2334.08V2279H3655.44V2429H3638.84L3637.96 2417.67C3630.73 2426.53 3620.67 2430.95 3607.78 2430.95C3595.54 2430.95 3585.55 2425.94 3577.8 2415.91C3570.12 2405.89 3566.28 2392.8 3566.28 2376.66V2375.29ZM3584.34 2377.34C3584.34 2389.32 3586.82 2398.69 3591.77 2405.46C3596.71 2412.24 3603.55 2415.62 3612.27 2415.62C3623.73 2415.62 3632.1 2410.48 3637.37 2400.19V2351.66C3631.97 2341.7 3623.67 2336.71 3612.47 2336.71C3603.61 2336.71 3596.71 2340.13 3591.77 2346.97C3586.82 2353.8 3584.34 2363.93 3584.34 2377.34ZM3703.19 2429H3685.12V2323.34H3703.19V2429ZM3683.66 2295.31C3683.66 2292.38 3684.54 2289.9 3686.3 2287.89C3688.12 2285.87 3690.79 2284.86 3694.3 2284.86C3697.82 2284.86 3700.49 2285.87 3702.31 2287.89C3704.14 2289.9 3705.05 2292.38 3705.05 2295.31C3705.05 2298.24 3704.14 2300.68 3702.31 2302.63C3700.49 2304.59 3697.82 2305.56 3694.3 2305.56C3690.79 2305.56 3688.12 2304.59 3686.3 2302.63C3684.54 2300.68 3683.66 2298.24 3683.66 2295.31ZM3783.27 2339.55C3780.54 2339.09 3777.57 2338.86 3774.38 2338.86C3762.53 2338.86 3754.49 2343.91 3750.26 2354V2429H3732.2V2323.34H3749.77L3750.07 2335.54C3755.99 2326.1 3764.39 2321.38 3775.26 2321.38C3778.78 2321.38 3781.45 2321.84 3783.27 2322.75V2339.55ZM3844.7 2365.62C3828.61 2361 3816.9 2355.33 3809.54 2348.63C3802.25 2341.86 3798.6 2333.52 3798.6 2323.63C3798.6 2312.43 3803.06 2303.19 3811.98 2295.89C3820.96 2288.54 3832.62 2284.86 3846.94 2284.86C3856.71 2284.86 3865.4 2286.75 3873.02 2290.52C3880.7 2294.3 3886.62 2299.51 3890.79 2306.15C3895.02 2312.79 3897.14 2320.05 3897.14 2327.93H3878.29C3878.29 2319.33 3875.55 2312.59 3870.09 2307.71C3864.62 2302.76 3856.9 2300.29 3846.94 2300.29C3837.7 2300.29 3830.47 2302.34 3825.26 2306.44C3820.12 2310.48 3817.55 2316.11 3817.55 2323.34C3817.55 2329.13 3819.99 2334.05 3824.87 2338.08C3829.82 2342.05 3838.18 2345.7 3849.97 2349.02C3861.82 2352.34 3871.06 2356.02 3877.7 2360.05C3884.41 2364.03 3889.36 2368.68 3892.55 2374.02C3895.8 2379.36 3897.43 2385.64 3897.43 2392.87C3897.43 2404.39 3892.94 2413.64 3883.95 2420.6C3874.97 2427.5 3862.96 2430.95 3847.92 2430.95C3838.15 2430.95 3829.04 2429.1 3820.57 2425.39C3812.11 2421.61 3805.57 2416.47 3800.95 2409.96C3796.39 2403.45 3794.11 2396.06 3794.11 2387.79H3812.96C3812.96 2396.38 3816.11 2403.19 3822.43 2408.2C3828.81 2413.15 3837.31 2415.62 3847.92 2415.62C3857.81 2415.62 3865.4 2413.6 3870.67 2409.57C3875.95 2405.53 3878.58 2400.03 3878.58 2393.06C3878.58 2386.1 3876.14 2380.73 3871.26 2376.95C3866.38 2373.11 3857.52 2369.33 3844.7 2365.62ZM3961.1 2416.21C3967.55 2416.21 3973.18 2414.25 3978 2410.35C3982.81 2406.44 3985.48 2401.56 3986 2395.7H4003.09C4002.77 2401.75 4000.68 2407.52 3996.84 2412.98C3993 2418.45 3987.86 2422.82 3981.41 2426.07C3975.03 2429.33 3968.26 2430.95 3961.1 2430.95C3946.71 2430.95 3935.26 2426.17 3926.73 2416.6C3918.26 2406.96 3914.03 2393.81 3914.03 2377.14V2374.12C3914.03 2363.83 3915.92 2354.68 3919.7 2346.68C3923.47 2338.67 3928.88 2332.45 3935.91 2328.02C3943 2323.6 3951.37 2321.38 3961 2321.38C3972.85 2321.38 3982.68 2324.93 3990.5 2332.03C3998.37 2339.12 4002.57 2348.34 4003.09 2359.66H3986C3985.48 2352.83 3982.88 2347.23 3978.19 2342.87C3973.57 2338.44 3967.84 2336.23 3961 2336.23C3951.82 2336.23 3944.7 2339.55 3939.62 2346.19C3934.6 2352.76 3932.1 2362.3 3932.1 2374.8V2378.22C3932.1 2390.39 3934.6 2399.77 3939.62 2406.34C3944.63 2412.92 3951.79 2416.21 3961.1 2416.21ZM4074.48 2339.55C4071.75 2339.09 4068.78 2338.86 4065.59 2338.86C4053.74 2338.86 4045.7 2343.91 4041.47 2354V2429H4023.41V2323.34H4040.98L4041.28 2335.54C4047.2 2326.1 4055.6 2321.38 4066.47 2321.38C4069.99 2321.38 4072.66 2321.84 4074.48 2322.75V2339.55ZM4152.51 2429C4151.47 2426.92 4150.62 2423.21 4149.97 2417.87C4141.57 2426.59 4131.54 2430.95 4119.89 2430.95C4109.47 2430.95 4100.91 2428.02 4094.21 2422.16C4087.57 2416.24 4084.25 2408.75 4084.25 2399.7C4084.25 2388.7 4088.41 2380.17 4096.75 2374.12C4105.14 2368 4116.93 2364.94 4132.1 2364.94H4149.68V2356.64C4149.68 2350.32 4147.79 2345.31 4144.01 2341.6C4140.24 2337.82 4134.67 2335.93 4127.31 2335.93C4120.87 2335.93 4115.46 2337.56 4111.1 2340.82C4106.74 2344.07 4104.56 2348.01 4104.56 2352.63H4086.39C4086.39 2347.36 4088.25 2342.28 4091.96 2337.4C4095.74 2332.45 4100.82 2328.54 4107.2 2325.68C4113.64 2322.82 4120.7 2321.38 4128.39 2321.38C4140.56 2321.38 4150.1 2324.44 4157 2330.56C4163.9 2336.62 4167.48 2344.98 4167.74 2355.66V2404.29C4167.74 2413.99 4168.98 2421.71 4171.45 2427.44V2429H4152.51ZM4122.53 2415.23C4128.19 2415.23 4133.56 2413.77 4138.64 2410.84C4143.72 2407.91 4147.4 2404.1 4149.68 2399.41V2377.73H4135.52C4113.38 2377.73 4102.31 2384.21 4102.31 2397.16C4102.31 2402.83 4104.2 2407.26 4107.98 2410.45C4111.75 2413.64 4116.6 2415.23 4122.53 2415.23ZM4285.32 2377.34C4285.32 2393.42 4281.64 2406.38 4274.29 2416.21C4266.93 2426.04 4256.97 2430.95 4244.4 2430.95C4231.58 2430.95 4221.49 2426.88 4214.13 2418.75V2469.62H4196.06V2323.34H4212.57L4213.45 2335.05C4220.8 2325.94 4231.02 2321.38 4244.11 2321.38C4256.8 2321.38 4266.83 2326.17 4274.19 2335.74C4281.61 2345.31 4285.32 2358.62 4285.32 2375.68V2377.34ZM4267.25 2375.29C4267.25 2363.38 4264.71 2353.97 4259.64 2347.07C4254.56 2340.17 4247.59 2336.71 4238.74 2336.71C4227.8 2336.71 4219.6 2341.57 4214.13 2351.27V2401.75C4219.53 2411.39 4227.8 2416.21 4238.93 2416.21C4247.59 2416.21 4254.46 2412.79 4259.54 2405.95C4264.68 2399.05 4267.25 2388.83 4267.25 2375.29ZM4352.21 2430.95C4337.89 2430.95 4326.24 2426.27 4317.25 2416.89C4308.27 2407.45 4303.78 2394.85 4303.78 2379.1V2375.78C4303.78 2365.3 4305.76 2355.95 4309.73 2347.75C4313.77 2339.48 4319.37 2333.04 4326.53 2328.41C4333.76 2323.73 4341.57 2321.38 4349.97 2321.38C4363.71 2321.38 4374.38 2325.91 4382 2334.96C4389.62 2344.01 4393.43 2356.96 4393.43 2373.82V2381.34H4321.84C4322.1 2391.76 4325.13 2400.19 4330.93 2406.64C4336.79 2413.02 4344.21 2416.21 4353.19 2416.21C4359.57 2416.21 4364.98 2414.9 4369.4 2412.3C4373.83 2409.7 4377.7 2406.25 4381.02 2401.95L4392.06 2410.54C4383.2 2424.15 4369.92 2430.95 4352.21 2430.95ZM4349.97 2336.23C4342.68 2336.23 4336.56 2338.9 4331.61 2344.23C4326.66 2349.51 4323.6 2356.93 4322.43 2366.5H4375.36V2365.13C4374.84 2355.95 4372.36 2348.86 4367.94 2343.84C4363.51 2338.77 4357.52 2336.23 4349.97 2336.23ZM4465.5 2339.55C4462.76 2339.09 4459.8 2338.86 4456.61 2338.86C4444.76 2338.86 4436.72 2343.91 4432.49 2354V2429H4414.42V2323.34H4432L4432.29 2335.54C4438.22 2326.1 4446.62 2321.38 4457.49 2321.38C4461 2321.38 4463.67 2321.84 4465.5 2322.75V2339.55Z" fill="black"/>
<rect x="1365" y="3656" width="2004" height="1010" rx="97" fill="white" stroke="black" stroke-width="6"/>
<path d="M2134.75 4102.24H2089.04V4229H2070.39V4102.24H2024.79V4086.81H2134.75V4102.24ZM2187.09 4230.95C2172.77 4230.95 2161.11 4226.27 2152.13 4216.89C2143.14 4207.45 2138.65 4194.85 2138.65 4179.1V4175.78C2138.65 4165.3 2140.64 4155.95 2144.61 4147.75C2148.65 4139.48 2154.24 4133.04 2161.41 4128.41C2168.63 4123.73 2176.45 4121.38 2184.84 4121.38C2198.58 4121.38 2209.26 4125.91 2216.88 4134.96C2224.49 4144.01 2228.3 4156.96 2228.3 4173.82V4181.34H2156.72C2156.98 4191.76 2160.01 4200.19 2165.8 4206.64C2171.66 4213.02 2179.08 4216.21 2188.07 4216.21C2194.45 4216.21 2199.85 4214.9 2204.28 4212.3C2208.7 4209.7 2212.58 4206.25 2215.9 4201.95L2226.93 4210.54C2218.08 4224.15 2204.8 4230.95 2187.09 4230.95ZM2184.84 4136.23C2177.55 4136.23 2171.43 4138.9 2166.48 4144.23C2161.54 4149.51 2158.48 4156.93 2157.3 4166.5H2210.23V4165.13C2209.71 4155.95 2207.24 4148.86 2202.81 4143.84C2198.39 4138.77 2192.4 4136.23 2184.84 4136.23ZM2284.75 4161.91L2308.18 4123.34H2329.28L2294.71 4175.58L2330.35 4229H2309.45L2285.04 4189.45L2260.62 4229H2239.63L2275.27 4175.58L2240.7 4123.34H2261.6L2284.75 4161.91ZM2373.03 4097.75V4123.34H2392.75V4137.3H2373.03V4202.83C2373.03 4207.06 2373.91 4210.25 2375.66 4212.4C2377.42 4214.48 2380.42 4215.52 2384.65 4215.52C2386.73 4215.52 2389.6 4215.13 2393.24 4214.35V4229C2388.49 4230.3 2383.87 4230.95 2379.38 4230.95C2371.3 4230.95 2365.21 4228.51 2361.11 4223.63C2357.01 4218.75 2354.96 4211.81 2354.96 4202.83V4137.3H2335.72V4123.34H2354.96V4097.75H2373.03ZM2495.2 4166.21H2435.53V4229H2416.78V4086.81H2504.86V4102.24H2435.53V4150.88H2495.2V4166.21ZM2544.12 4229H2526.05V4123.34H2544.12V4229ZM2524.59 4095.31C2524.59 4092.38 2525.47 4089.9 2527.23 4087.89C2529.05 4085.87 2531.72 4084.86 2535.23 4084.86C2538.75 4084.86 2541.42 4085.87 2543.24 4087.89C2545.07 4089.9 2545.98 4092.38 2545.98 4095.31C2545.98 4098.24 2545.07 4100.68 2543.24 4102.63C2541.42 4104.59 2538.75 4105.56 2535.23 4105.56C2531.72 4105.56 2529.05 4104.59 2527.23 4102.63C2525.47 4100.68 2524.59 4098.24 2524.59 4095.31ZM2592.75 4229H2574.69V4079H2592.75V4229ZM2665.61 4230.95C2651.28 4230.95 2639.63 4226.27 2630.64 4216.89C2621.66 4207.45 2617.17 4194.85 2617.17 4179.1V4175.78C2617.17 4165.3 2619.15 4155.95 2623.12 4147.75C2627.16 4139.48 2632.76 4133.04 2639.92 4128.41C2647.15 4123.73 2654.96 4121.38 2663.36 4121.38C2677.1 4121.38 2687.77 4125.91 2695.39 4134.96C2703.01 4144.01 2706.82 4156.96 2706.82 4173.82V4181.34H2635.23C2635.49 4191.76 2638.52 4200.19 2644.32 4206.64C2650.18 4213.02 2657.6 4216.21 2666.58 4216.21C2672.96 4216.21 2678.37 4214.9 2682.79 4212.3C2687.22 4209.7 2691.09 4206.25 2694.41 4201.95L2705.45 4210.54C2696.6 4224.15 2683.31 4230.95 2665.61 4230.95ZM2663.36 4136.23C2656.07 4136.23 2649.95 4138.9 2645 4144.23C2640.05 4149.51 2636.99 4156.93 2635.82 4166.5H2688.75V4165.13C2688.23 4155.95 2685.76 4148.86 2681.33 4143.84C2676.9 4138.77 2670.91 4136.23 2663.36 4136.23Z" fill="black"/>
<rect x="4658" y="3656" width="2004" height="1010" rx="97" fill="white" stroke="black" stroke-width="6"/>
<path d="M5324.07 4086.81H5342.92V4187.5C5342.92 4201.1 5338.82 4211.75 5330.62 4219.43C5322.48 4227.11 5311.61 4230.95 5298 4230.95C5283.87 4230.95 5272.87 4227.34 5264.99 4220.11C5257.11 4212.89 5253.18 4202.76 5253.18 4189.74H5271.93C5271.93 4197.88 5274.14 4204.23 5278.57 4208.79C5283.06 4213.34 5289.54 4215.62 5298 4215.62C5305.75 4215.62 5312 4213.18 5316.75 4208.3C5321.57 4203.41 5324.01 4196.58 5324.07 4187.79V4086.81ZM5416.75 4165.62C5400.67 4161 5388.95 4155.33 5381.59 4148.63C5374.3 4141.86 5370.66 4133.52 5370.66 4123.63C5370.66 4112.43 5375.12 4103.19 5384.04 4095.89C5393.02 4088.54 5404.67 4084.86 5419 4084.86C5428.76 4084.86 5437.45 4086.75 5445.07 4090.52C5452.75 4094.3 5458.68 4099.51 5462.84 4106.15C5467.08 4112.79 5469.19 4120.05 5469.19 4127.93H5450.34C5450.34 4119.33 5447.61 4112.59 5442.14 4107.71C5436.67 4102.76 5428.96 4100.29 5419 4100.29C5409.75 4100.29 5402.52 4102.34 5397.32 4106.44C5392.17 4110.48 5389.6 4116.11 5389.6 4123.34C5389.6 4129.13 5392.04 4134.05 5396.93 4138.08C5401.87 4142.05 5410.24 4145.7 5422.02 4149.02C5433.87 4152.34 5443.12 4156.02 5449.76 4160.05C5456.46 4164.03 5461.41 4168.68 5464.6 4174.02C5467.86 4179.36 5469.48 4185.64 5469.48 4192.87C5469.48 4204.39 5464.99 4213.64 5456.01 4220.6C5447.02 4227.5 5435.01 4230.95 5419.97 4230.95C5410.21 4230.95 5401.09 4229.1 5392.63 4225.39C5384.17 4221.61 5377.62 4216.47 5373 4209.96C5368.44 4203.45 5366.16 4196.06 5366.16 4187.79H5385.01C5385.01 4196.38 5388.17 4203.19 5394.48 4208.2C5400.86 4213.15 5409.36 4215.62 5419.97 4215.62C5429.87 4215.62 5437.45 4213.6 5442.73 4209.57C5448 4205.53 5450.64 4200.03 5450.64 4193.06C5450.64 4186.1 5448.2 4180.73 5443.31 4176.95C5438.43 4173.11 5429.58 4169.33 5416.75 4165.62ZM5602.98 4162.5C5602.98 4176.43 5600.64 4188.6 5595.95 4199.02C5591.26 4209.37 5584.62 4217.28 5576.03 4222.75C5567.43 4228.22 5557.41 4230.95 5545.95 4230.95C5534.75 4230.95 5524.82 4228.22 5516.16 4222.75C5507.51 4217.22 5500.77 4209.37 5495.95 4199.21C5491.2 4188.99 5488.76 4177.18 5488.62 4163.77V4153.51C5488.62 4139.84 5491 4127.76 5495.75 4117.28C5500.51 4106.8 5507.21 4098.79 5515.87 4093.26C5524.6 4087.66 5534.56 4084.86 5545.75 4084.86C5557.15 4084.86 5567.17 4087.63 5575.83 4093.16C5584.56 4098.63 5591.26 4106.6 5595.95 4117.09C5600.64 4127.5 5602.98 4139.64 5602.98 4153.51V4162.5ZM5584.33 4153.32C5584.33 4136.45 5580.94 4123.53 5574.17 4114.55C5567.4 4105.5 5557.93 4100.97 5545.75 4100.97C5533.9 4100.97 5524.56 4105.5 5517.73 4114.55C5510.96 4123.53 5507.47 4136.03 5507.28 4152.05V4162.5C5507.28 4178.84 5510.7 4191.7 5517.53 4201.07C5524.43 4210.38 5533.9 4215.04 5545.95 4215.04C5558.06 4215.04 5567.43 4210.64 5574.07 4201.85C5580.71 4193 5584.13 4180.33 5584.33 4163.86V4153.32ZM5740.38 4229H5721.54L5649.95 4119.43V4229H5631.11V4086.81H5649.95L5721.73 4196.87V4086.81H5740.38V4229ZM5852.1 4166.21H5792.43V4229H5773.68V4086.81H5861.77V4102.24H5792.43V4150.88H5852.1V4166.21ZM5901.03 4229H5882.96V4123.34H5901.03V4229ZM5881.5 4095.31C5881.5 4092.38 5882.38 4089.9 5884.13 4087.89C5885.96 4085.87 5888.62 4084.86 5892.14 4084.86C5895.66 4084.86 5898.33 4085.87 5900.15 4087.89C5901.97 4089.9 5902.88 4092.38 5902.88 4095.31C5902.88 4098.24 5901.97 4100.68 5900.15 4102.63C5898.33 4104.59 5895.66 4105.56 5892.14 4105.56C5888.62 4105.56 5885.96 4104.59 5884.13 4102.63C5882.38 4100.68 5881.5 4098.24 5881.5 4095.31ZM5949.66 4229H5931.59V4079H5949.66V4229ZM6022.51 4230.95C6008.19 4230.95 5996.54 4226.27 5987.55 4216.89C5978.57 4207.45 5974.07 4194.85 5974.07 4179.1V4175.78C5974.07 4165.3 5976.06 4155.95 5980.03 4147.75C5984.07 4139.48 5989.67 4133.04 5996.83 4128.41C6004.05 4123.73 6011.87 4121.38 6020.27 4121.38C6034 4121.38 6044.68 4125.91 6052.3 4134.96C6059.91 4144.01 6063.72 4156.96 6063.72 4173.82V4181.34H5992.14C5992.4 4191.76 5995.43 4200.19 6001.22 4206.64C6007.08 4213.02 6014.5 4216.21 6023.49 4216.21C6029.87 4216.21 6035.27 4214.9 6039.7 4212.3C6044.13 4209.7 6048 4206.25 6051.32 4201.95L6062.36 4210.54C6053.5 4224.15 6040.22 4230.95 6022.51 4230.95ZM6020.27 4136.23C6012.97 4136.23 6006.85 4138.9 6001.91 4144.23C5996.96 4149.51 5993.9 4156.93 5992.73 4166.5H6045.66V4165.13C6045.14 4155.95 6042.66 4148.86 6038.23 4143.84C6033.81 4138.77 6027.82 4136.23 6020.27 4136.23Z" fill="black"/>
<path fill-rule="evenodd" clip-rule="evenodd" d="M4083.71 1796.43L4020.07 1860.07C4016.17 1863.98 4009.83 1863.98 4005.93 1860.07L3942.29 1796.43C3938.38 1792.53 3938.38 1786.19 3942.29 1782.29C3946.19 1778.38 3952.53 1778.38 3956.43 1782.29L4003 1828.86V1016H4023V1828.86L4069.57 1782.29C4073.47 1778.38 4079.81 1778.38 4083.71 1782.29C4087.62 1786.19 4087.62 1792.53 4083.71 1796.43ZM2076.57 2431.71L2012.93 2368.07C2009.02 2364.17 2009.02 2357.83 2012.93 2353.93L2076.57 2290.29C2080.47 2286.38 2086.81 2286.38 2090.71 2290.29C2094.62 2294.19 2094.62 2300.53 2090.71 2304.43L2044.14 2351L3008 2351V2371L2044.14 2371L2090.71 2417.57C2094.62 2421.47 2094.62 2427.81 2090.71 2431.71C2086.81 2435.62 2080.47 2435.62 2076.57 2431.71ZM4003 3255V2869H4023V3255H5706H5716H5726V3628.86L5772.57 3582.29C5776.47 3578.38 5782.81 3578.38 5786.71 3582.29C5790.62 3586.19 5790.62 3592.53 5786.71 3596.43L5723.07 3660.07C5719.17 3663.98 5712.83 3663.98 5708.93 3660.07L5645.29 3596.43C5641.38 3592.53 5641.38 3586.19 5645.29 3582.29C5649.19 3578.38 5655.53 3578.38 5659.43 3582.29L5706 3628.86V3275H4013H2320V3628.86L2366.57 3582.29C2370.47 3578.38 2376.81 3578.38 2380.71 3582.29C2384.62 3586.19 2384.62 3592.53 2380.71 3596.43L2317.07 3660.07C2313.17 3663.98 2306.84 3663.98 2302.93 3660.07L2239.29 3596.43C2235.39 3592.53 2235.39 3586.19 2239.29 3582.29C2243.2 3578.38 2249.53 3578.38 2253.43 3582.29L2300 3628.86V3255H2310H2320H4003Z" fill="#D3D3D3"/>
</svg>
