<svg width="6949" height="4616" viewBox="0 0 6949 4616" fill="none" xmlns="http://www.w3.org/2000/svg">
<rect x="1649" y="3" width="2004" height="1010" rx="97" fill="white" stroke="black" stroke-width="6"/>
<path d="M2045.35 560.668H2112.73V576H2026.5V433.812H2045.35V560.668ZM2126.5 522.191C2126.5 511.84 2128.52 502.53 2132.56 494.262C2136.66 485.993 2142.32 479.613 2149.55 475.121C2156.84 470.629 2165.14 468.383 2174.45 468.383C2188.84 468.383 2200.46 473.363 2209.32 483.324C2218.24 493.285 2222.7 506.534 2222.7 523.07V524.34C2222.7 534.626 2220.71 543.871 2216.74 552.074C2212.83 560.212 2207.2 566.56 2199.84 571.117C2192.55 575.674 2184.15 577.953 2174.65 577.953C2160.33 577.953 2148.7 572.973 2139.79 563.012C2130.93 553.051 2126.5 539.867 2126.5 523.461V522.191ZM2144.67 524.34C2144.67 536.059 2147.37 545.466 2152.77 552.562C2158.24 559.659 2165.53 563.207 2174.65 563.207C2183.83 563.207 2191.12 559.626 2196.52 552.465C2201.93 545.238 2204.63 535.147 2204.63 522.191C2204.63 510.603 2201.86 501.228 2196.33 494.066C2190.86 486.84 2183.57 483.227 2174.45 483.227C2165.53 483.227 2158.34 486.775 2152.87 493.871C2147.4 500.967 2144.67 511.124 2144.67 524.34ZM2241.05 522.289C2241.05 505.818 2244.86 492.732 2252.48 483.031C2260.1 473.266 2270.19 468.383 2282.75 468.383C2295.64 468.383 2305.7 472.94 2312.93 482.055L2313.81 470.336H2330.31V573.461C2330.31 587.133 2326.24 597.908 2318.11 605.785C2310.03 613.663 2299.16 617.602 2285.49 617.602C2277.87 617.602 2270.42 615.974 2263.12 612.719C2255.83 609.464 2250.27 605.004 2246.43 599.34L2255.8 588.5C2263.55 598.07 2273.02 602.855 2284.22 602.855C2293.01 602.855 2299.84 600.382 2304.73 595.434C2309.67 590.486 2312.15 583.52 2312.15 574.535V565.453C2304.92 573.786 2295.06 577.953 2282.56 577.953C2270.19 577.953 2260.16 572.973 2252.48 563.012C2244.86 553.051 2241.05 539.477 2241.05 522.289ZM2259.22 524.34C2259.22 536.254 2261.66 545.629 2266.54 552.465C2271.43 559.236 2278.26 562.621 2287.05 562.621C2298.44 562.621 2306.81 557.445 2312.15 547.094V498.852C2306.61 488.76 2298.31 483.715 2287.25 483.715C2278.46 483.715 2271.59 487.133 2266.64 493.969C2261.69 500.805 2259.22 510.928 2259.22 524.34ZM2353.36 522.289C2353.36 505.818 2357.17 492.732 2364.79 483.031C2372.4 473.266 2382.49 468.383 2395.06 468.383C2407.95 468.383 2418.01 472.94 2425.23 482.055L2426.11 470.336H2442.62V573.461C2442.62 587.133 2438.55 597.908 2430.41 605.785C2422.34 613.663 2411.46 617.602 2397.79 617.602C2390.18 617.602 2382.72 615.974 2375.43 612.719C2368.14 609.464 2362.57 605.004 2358.73 599.34L2368.11 588.5C2375.85 598.07 2385.33 602.855 2396.52 602.855C2405.31 602.855 2412.15 600.382 2417.03 595.434C2421.98 590.486 2424.45 583.52 2424.45 574.535V565.453C2417.23 573.786 2407.36 577.953 2394.86 577.953C2382.49 577.953 2372.47 572.973 2364.79 563.012C2357.17 553.051 2353.36 539.477 2353.36 522.289ZM2371.52 524.34C2371.52 536.254 2373.96 545.629 2378.85 552.465C2383.73 559.236 2390.57 562.621 2399.36 562.621C2410.75 562.621 2419.11 557.445 2424.45 547.094V498.852C2418.92 488.76 2410.62 483.715 2399.55 483.715C2390.76 483.715 2383.89 487.133 2378.95 493.969C2374 500.805 2371.52 510.928 2371.52 524.34ZM2513.81 577.953C2499.49 577.953 2487.83 573.266 2478.85 563.891C2469.86 554.451 2465.37 541.853 2465.37 526.098V522.777C2465.37 512.296 2467.36 502.953 2471.33 494.75C2475.36 486.482 2480.96 480.036 2488.12 475.414C2495.35 470.727 2503.16 468.383 2511.56 468.383C2525.3 468.383 2535.98 472.908 2543.59 481.957C2551.21 491.007 2555.02 503.962 2555.02 520.824V528.344H2483.44C2483.7 538.76 2486.73 547.191 2492.52 553.637C2498.38 560.017 2505.8 563.207 2514.79 563.207C2521.17 563.207 2526.57 561.905 2531 559.301C2535.42 556.697 2539.3 553.246 2542.62 548.949L2553.65 557.543C2544.8 571.15 2531.52 577.953 2513.81 577.953ZM2511.56 483.227C2504.27 483.227 2498.15 485.896 2493.2 491.234C2488.26 496.508 2485.2 503.93 2484.02 513.5H2536.95V512.133C2536.43 502.953 2533.96 495.857 2529.53 490.844C2525.1 485.766 2519.11 483.227 2511.56 483.227ZM2627.09 486.547C2624.36 486.091 2621.39 485.863 2618.2 485.863C2606.35 485.863 2598.31 490.909 2594.08 501V576H2576.02V470.336H2593.59L2593.89 482.543C2599.81 473.103 2608.21 468.383 2619.08 468.383C2622.6 468.383 2625.27 468.839 2627.09 469.75V486.547ZM2725.04 513.207H2665.37V576H2646.62V433.812H2734.71V449.242H2665.37V497.875H2725.04V513.207ZM2816.25 576C2815.21 573.917 2814.36 570.206 2813.71 564.867C2805.31 573.591 2795.29 577.953 2783.63 577.953C2773.22 577.953 2764.65 575.023 2757.95 569.164C2751.31 563.24 2747.99 555.753 2747.99 546.703C2747.99 535.701 2752.15 527.172 2760.49 521.117C2768.89 514.997 2780.67 511.938 2795.84 511.938H2813.42V503.637C2813.42 497.322 2811.53 492.309 2807.75 488.598C2803.98 484.822 2798.41 482.934 2791.05 482.934C2784.61 482.934 2779.21 484.561 2774.84 487.816C2770.48 491.072 2768.3 495.01 2768.3 499.633H2750.14C2750.14 494.359 2751.99 489.281 2755.7 484.398C2759.48 479.451 2764.56 475.544 2770.94 472.68C2777.38 469.815 2784.45 468.383 2792.13 468.383C2804.3 468.383 2813.84 471.443 2820.74 477.562C2827.64 483.617 2831.22 491.983 2831.48 502.66V551.293C2831.48 560.993 2832.72 568.708 2835.2 574.438V576H2816.25ZM2786.27 562.23C2791.93 562.23 2797.3 560.766 2802.38 557.836C2807.46 554.906 2811.14 551.098 2813.42 546.41V524.73H2799.26C2777.12 524.73 2766.05 531.208 2766.05 544.164C2766.05 549.828 2767.94 554.255 2771.72 557.445C2775.49 560.635 2780.35 562.23 2786.27 562.23ZM2902.19 563.207C2908.63 563.207 2914.26 561.254 2919.08 557.348C2923.9 553.441 2926.57 548.559 2927.09 542.699H2944.18C2943.85 548.754 2941.77 554.516 2937.93 559.984C2934.09 565.453 2928.95 569.815 2922.5 573.07C2916.12 576.326 2909.35 577.953 2902.19 577.953C2887.8 577.953 2876.34 573.168 2867.81 563.598C2859.35 553.962 2855.12 540.811 2855.12 524.145V521.117C2855.12 510.831 2857.01 501.684 2860.78 493.676C2864.56 485.668 2869.96 479.451 2876.99 475.023C2884.09 470.596 2892.45 468.383 2902.09 468.383C2913.94 468.383 2923.77 471.931 2931.58 479.027C2939.46 486.124 2943.66 495.336 2944.18 506.664H2927.09C2926.57 499.828 2923.96 494.229 2919.28 489.867C2914.65 485.44 2908.93 483.227 2902.09 483.227C2892.91 483.227 2885.78 486.547 2880.7 493.188C2875.69 499.763 2873.18 509.301 2873.18 521.801V525.219C2873.18 537.393 2875.69 546.768 2880.7 553.344C2885.72 559.919 2892.88 563.207 2902.19 563.207ZM2989 444.75V470.336H3008.73V484.301H2989V549.828C2989 554.06 2989.88 557.25 2991.64 559.398C2993.4 561.482 2996.39 562.523 3000.62 562.523C3002.71 562.523 3005.57 562.133 3009.22 561.352V576C3004.47 577.302 2999.84 577.953 2995.35 577.953C2987.28 577.953 2981.19 575.512 2977.09 570.629C2972.99 565.746 2970.94 558.812 2970.94 549.828V484.301H2951.7V470.336H2970.94V444.75H2989ZM3023.18 522.191C3023.18 511.84 3025.2 502.53 3029.24 494.262C3033.34 485.993 3039 479.613 3046.23 475.121C3053.52 470.629 3061.82 468.383 3071.13 468.383C3085.52 468.383 3097.14 473.363 3106 483.324C3114.92 493.285 3119.38 506.534 3119.38 523.07V524.34C3119.38 534.626 3117.39 543.871 3113.42 552.074C3109.51 560.212 3103.88 566.56 3096.52 571.117C3089.23 575.674 3080.83 577.953 3071.33 577.953C3057.01 577.953 3045.38 572.973 3036.46 563.012C3027.61 553.051 3023.18 539.867 3023.18 523.461V522.191ZM3041.35 524.34C3041.35 536.059 3044.05 545.466 3049.45 552.562C3054.92 559.659 3062.21 563.207 3071.33 563.207C3080.51 563.207 3087.8 559.626 3093.2 552.465C3098.61 545.238 3101.31 535.147 3101.31 522.191C3101.31 510.603 3098.54 501.228 3093.01 494.066C3087.54 486.84 3080.25 483.227 3071.13 483.227C3062.21 483.227 3055.02 486.775 3049.55 493.871C3044.08 500.967 3041.35 511.124 3041.35 524.34ZM3193.11 486.547C3190.37 486.091 3187.41 485.863 3184.22 485.863C3172.37 485.863 3164.33 490.909 3160.1 501V576H3142.03V470.336H3159.61L3159.9 482.543C3165.83 473.103 3174.23 468.383 3185.1 468.383C3188.61 468.383 3191.28 468.839 3193.11 469.75V486.547ZM3246.13 549.535L3270.74 470.336H3290.08L3247.6 592.309C3241.02 609.887 3230.57 618.676 3216.25 618.676L3212.83 618.383L3206.09 617.113V602.465L3210.98 602.855C3217.1 602.855 3221.85 601.618 3225.23 599.145C3228.68 596.671 3231.52 592.146 3233.73 585.57L3237.73 574.828L3200.04 470.336H3219.77L3246.13 549.535Z" fill="black"/>
<rect x="3" y="1803" width="2004" height="1010" rx="97" fill="white" stroke="black" stroke-width="6"/>
<path d="M243.254 2320.34V2376H224.504V2233.81H276.945C292.505 2233.81 304.68 2237.78 313.469 2245.73C322.323 2253.67 326.75 2264.18 326.75 2277.27C326.75 2291.07 322.421 2301.72 313.762 2309.2C305.168 2316.62 292.831 2320.34 276.75 2320.34H243.254ZM243.254 2305H276.945C286.971 2305 294.654 2302.66 299.992 2297.97C305.331 2293.22 308 2286.38 308 2277.46C308 2269 305.331 2262.23 299.992 2257.15C294.654 2252.07 287.329 2249.44 278.02 2249.24H243.254V2305ZM398.918 2286.55C396.184 2286.09 393.221 2285.86 390.031 2285.86C378.182 2285.86 370.142 2290.91 365.91 2301V2376H347.844V2270.34H365.422L365.715 2282.54C371.639 2273.1 380.038 2268.38 390.91 2268.38C394.426 2268.38 397.095 2268.84 398.918 2269.75V2286.55ZM408.879 2322.19C408.879 2311.84 410.897 2302.53 414.934 2294.26C419.035 2285.99 424.699 2279.61 431.926 2275.12C439.217 2270.63 447.518 2268.38 456.828 2268.38C471.216 2268.38 482.837 2273.36 491.691 2283.32C500.611 2293.29 505.07 2306.53 505.07 2323.07V2324.34C505.07 2334.63 503.085 2343.87 499.113 2352.07C495.207 2360.21 489.576 2366.56 482.219 2371.12C474.927 2375.67 466.529 2377.95 457.023 2377.95C442.701 2377.95 431.079 2372.97 422.16 2363.01C413.306 2353.05 408.879 2339.87 408.879 2323.46V2322.19ZM427.043 2324.34C427.043 2336.06 429.745 2345.47 435.148 2352.56C440.617 2359.66 447.909 2363.21 457.023 2363.21C466.203 2363.21 473.495 2359.63 478.898 2352.46C484.302 2345.24 487.004 2335.15 487.004 2322.19C487.004 2310.6 484.237 2301.23 478.703 2294.07C473.234 2286.84 465.943 2283.23 456.828 2283.23C447.909 2283.23 440.715 2286.77 435.246 2293.87C429.777 2300.97 427.043 2311.12 427.043 2324.34ZM523.332 2322.29C523.332 2306.08 527.173 2293.06 534.855 2283.23C542.538 2273.33 552.596 2268.38 565.031 2268.38C577.401 2268.38 587.199 2272.61 594.426 2281.08V2226H612.492V2376H595.891L595.012 2364.67C587.785 2373.53 577.727 2377.95 564.836 2377.95C552.596 2377.95 542.603 2372.94 534.855 2362.91C527.173 2352.89 523.332 2339.8 523.332 2323.66V2322.29ZM541.398 2324.34C541.398 2336.32 543.872 2345.69 548.82 2352.46C553.768 2359.24 560.604 2362.62 569.328 2362.62C580.786 2362.62 589.152 2357.48 594.426 2347.19V2298.66C589.022 2288.7 580.721 2283.71 569.523 2283.71C560.669 2283.71 553.768 2287.13 548.82 2293.97C543.872 2300.8 541.398 2310.93 541.398 2324.34ZM705.852 2365.55C698.82 2373.82 688.501 2377.95 674.895 2377.95C663.632 2377.95 655.038 2374.7 649.113 2368.19C643.254 2361.61 640.292 2351.91 640.227 2339.09V2270.34H658.293V2338.6C658.293 2354.61 664.803 2362.62 677.824 2362.62C691.626 2362.62 700.806 2357.48 705.363 2347.19V2270.34H723.43V2376H706.242L705.852 2365.55ZM793.352 2363.21C799.797 2363.21 805.428 2361.25 810.246 2357.35C815.064 2353.44 817.733 2348.56 818.254 2342.7H835.344C835.018 2348.75 832.935 2354.52 829.094 2359.98C825.253 2365.45 820.109 2369.82 813.664 2373.07C807.284 2376.33 800.513 2377.95 793.352 2377.95C778.964 2377.95 767.505 2373.17 758.977 2363.6C750.513 2353.96 746.281 2340.81 746.281 2324.14V2321.12C746.281 2310.83 748.169 2301.68 751.945 2293.68C755.721 2285.67 761.125 2279.45 768.156 2275.02C775.253 2270.6 783.618 2268.38 793.254 2268.38C805.103 2268.38 814.934 2271.93 822.746 2279.03C830.624 2286.12 834.823 2295.34 835.344 2306.66H818.254C817.733 2299.83 815.129 2294.23 810.441 2289.87C805.819 2285.44 800.09 2283.23 793.254 2283.23C784.074 2283.23 776.945 2286.55 771.867 2293.19C766.854 2299.76 764.348 2309.3 764.348 2321.8V2325.22C764.348 2337.39 766.854 2346.77 771.867 2353.34C776.88 2359.92 784.042 2363.21 793.352 2363.21ZM880.168 2244.75V2270.34H899.895V2284.3H880.168V2349.83C880.168 2354.06 881.047 2357.25 882.805 2359.4C884.562 2361.48 887.557 2362.52 891.789 2362.52C893.872 2362.52 896.737 2362.13 900.383 2361.35V2376C895.63 2377.3 891.008 2377.95 886.516 2377.95C878.443 2377.95 872.355 2375.51 868.254 2370.63C864.152 2365.75 862.102 2358.81 862.102 2349.83V2284.3H842.863V2270.34H862.102V2244.75H880.168ZM940.715 2376H922.648V2270.34H940.715V2376ZM921.184 2242.31C921.184 2239.38 922.062 2236.9 923.82 2234.89C925.643 2232.87 928.312 2231.86 931.828 2231.86C935.344 2231.86 938.013 2232.87 939.836 2234.89C941.659 2236.9 942.57 2239.38 942.57 2242.31C942.57 2245.24 941.659 2247.68 939.836 2249.63C938.013 2251.59 935.344 2252.56 931.828 2252.56C928.312 2252.56 925.643 2251.59 923.82 2249.63C922.062 2247.68 921.184 2245.24 921.184 2242.31ZM964.934 2322.19C964.934 2311.84 966.952 2302.53 970.988 2294.26C975.09 2285.99 980.754 2279.61 987.98 2275.12C995.272 2270.63 1003.57 2268.38 1012.88 2268.38C1027.27 2268.38 1038.89 2273.36 1047.75 2283.32C1056.67 2293.29 1061.12 2306.53 1061.12 2323.07V2324.34C1061.12 2334.63 1059.14 2343.87 1055.17 2352.07C1051.26 2360.21 1045.63 2366.56 1038.27 2371.12C1030.98 2375.67 1022.58 2377.95 1013.08 2377.95C998.755 2377.95 987.134 2372.97 978.215 2363.01C969.361 2353.05 964.934 2339.87 964.934 2323.46V2322.19ZM983.098 2324.34C983.098 2336.06 985.799 2345.47 991.203 2352.56C996.672 2359.66 1003.96 2363.21 1013.08 2363.21C1022.26 2363.21 1029.55 2359.63 1034.95 2352.46C1040.36 2345.24 1043.06 2335.15 1043.06 2322.19C1043.06 2310.6 1040.29 2301.23 1034.76 2294.07C1029.29 2286.84 1022 2283.23 1012.88 2283.23C1003.96 2283.23 996.77 2286.77 991.301 2293.87C985.832 2300.97 983.098 2311.12 983.098 2324.34ZM1100.87 2270.34L1101.46 2283.62C1109.53 2273.46 1120.08 2268.38 1133.1 2268.38C1155.43 2268.38 1166.69 2280.98 1166.89 2306.18V2376H1148.82V2306.08C1148.76 2298.46 1147 2292.83 1143.55 2289.18C1140.16 2285.54 1134.86 2283.71 1127.63 2283.71C1121.77 2283.71 1116.63 2285.28 1112.2 2288.4C1107.77 2291.53 1104.32 2295.63 1101.85 2300.71V2376H1083.78V2270.34H1100.87ZM1215.81 2360.67H1283.2V2376H1196.96V2233.81H1215.81V2360.67ZM1296.96 2322.19C1296.96 2311.84 1298.98 2302.53 1303.02 2294.26C1307.12 2285.99 1312.79 2279.61 1320.01 2275.12C1327.3 2270.63 1335.6 2268.38 1344.91 2268.38C1359.3 2268.38 1370.92 2273.36 1379.78 2283.32C1388.7 2293.29 1393.16 2306.53 1393.16 2323.07V2324.34C1393.16 2334.63 1391.17 2343.87 1387.2 2352.07C1383.29 2360.21 1377.66 2366.56 1370.3 2371.12C1363.01 2375.67 1354.61 2377.95 1345.11 2377.95C1330.79 2377.95 1319.17 2372.97 1310.25 2363.01C1301.39 2353.05 1296.96 2339.87 1296.96 2323.46V2322.19ZM1315.13 2324.34C1315.13 2336.06 1317.83 2345.47 1323.23 2352.56C1328.7 2359.66 1335.99 2363.21 1345.11 2363.21C1354.29 2363.21 1361.58 2359.63 1366.98 2352.46C1372.39 2345.24 1375.09 2335.15 1375.09 2322.19C1375.09 2310.6 1372.32 2301.23 1366.79 2294.07C1361.32 2286.84 1354.03 2283.23 1344.91 2283.23C1335.99 2283.23 1328.8 2286.77 1323.33 2293.87C1317.86 2300.97 1315.13 2311.12 1315.13 2324.34ZM1411.52 2322.29C1411.52 2305.82 1415.32 2292.73 1422.94 2283.03C1430.56 2273.27 1440.65 2268.38 1453.21 2268.38C1466.11 2268.38 1476.16 2272.94 1483.39 2282.05L1484.27 2270.34H1500.77V2373.46C1500.77 2387.13 1496.7 2397.91 1488.57 2405.79C1480.49 2413.66 1469.62 2417.6 1455.95 2417.6C1448.33 2417.6 1440.88 2415.97 1433.59 2412.72C1426.29 2409.46 1420.73 2405 1416.89 2399.34L1426.26 2388.5C1434.01 2398.07 1443.48 2402.86 1454.68 2402.86C1463.47 2402.86 1470.3 2400.38 1475.19 2395.43C1480.14 2390.49 1482.61 2383.52 1482.61 2374.54V2365.45C1475.38 2373.79 1465.52 2377.95 1453.02 2377.95C1440.65 2377.95 1430.62 2372.97 1422.94 2363.01C1415.32 2353.05 1411.52 2339.48 1411.52 2322.29ZM1429.68 2324.34C1429.68 2336.25 1432.12 2345.63 1437 2352.46C1441.89 2359.24 1448.72 2362.62 1457.51 2362.62C1468.9 2362.62 1477.27 2357.45 1482.61 2347.09V2298.85C1477.08 2288.76 1468.77 2283.71 1457.71 2283.71C1448.92 2283.71 1442.05 2287.13 1437.1 2293.97C1432.15 2300.8 1429.68 2310.93 1429.68 2324.34ZM1523.82 2322.29C1523.82 2305.82 1527.63 2292.73 1535.25 2283.03C1542.86 2273.27 1552.95 2268.38 1565.52 2268.38C1578.41 2268.38 1588.47 2272.94 1595.7 2282.05L1596.57 2270.34H1613.08V2373.46C1613.08 2387.13 1609.01 2397.91 1600.87 2405.79C1592.8 2413.66 1581.93 2417.6 1568.25 2417.6C1560.64 2417.6 1553.18 2415.97 1545.89 2412.72C1538.6 2409.46 1533.03 2405 1529.19 2399.34L1538.57 2388.5C1546.31 2398.07 1555.79 2402.86 1566.98 2402.86C1575.77 2402.86 1582.61 2400.38 1587.49 2395.43C1592.44 2390.49 1594.91 2383.52 1594.91 2374.54V2365.45C1587.69 2373.79 1577.82 2377.95 1565.32 2377.95C1552.95 2377.95 1542.93 2372.97 1535.25 2363.01C1527.63 2353.05 1523.82 2339.48 1523.82 2322.29ZM1541.98 2324.34C1541.98 2336.25 1544.43 2345.63 1549.31 2352.46C1554.19 2359.24 1561.03 2362.62 1569.82 2362.62C1581.21 2362.62 1589.58 2357.45 1594.91 2347.09V2298.85C1589.38 2288.76 1581.08 2283.71 1570.01 2283.71C1561.22 2283.71 1554.35 2287.13 1549.41 2293.97C1544.46 2300.8 1541.98 2310.93 1541.98 2324.34ZM1684.27 2377.95C1669.95 2377.95 1658.29 2373.27 1649.31 2363.89C1640.32 2354.45 1635.83 2341.85 1635.83 2326.1V2322.78C1635.83 2312.3 1637.82 2302.95 1641.79 2294.75C1645.83 2286.48 1651.42 2280.04 1658.59 2275.41C1665.81 2270.73 1673.62 2268.38 1682.02 2268.38C1695.76 2268.38 1706.44 2272.91 1714.05 2281.96C1721.67 2291.01 1725.48 2303.96 1725.48 2320.82V2328.34H1653.9C1654.16 2338.76 1657.19 2347.19 1662.98 2353.64C1668.84 2360.02 1676.26 2363.21 1685.25 2363.21C1691.63 2363.21 1697.03 2361.9 1701.46 2359.3C1705.88 2356.7 1709.76 2353.25 1713.08 2348.95L1724.11 2357.54C1715.26 2371.15 1701.98 2377.95 1684.27 2377.95ZM1682.02 2283.23C1674.73 2283.23 1668.61 2285.9 1663.66 2291.23C1658.72 2296.51 1655.66 2303.93 1654.48 2313.5H1707.41V2312.13C1706.89 2302.95 1704.42 2295.86 1699.99 2290.84C1695.57 2285.77 1689.58 2283.23 1682.02 2283.23ZM1797.55 2286.55C1794.82 2286.09 1791.85 2285.86 1788.66 2285.86C1776.82 2285.86 1768.77 2290.91 1764.54 2301V2376H1746.48V2270.34H1764.05L1764.35 2282.54C1770.27 2273.1 1778.67 2268.38 1789.54 2268.38C1793.06 2268.38 1795.73 2268.84 1797.55 2269.75V2286.55Z" fill="black"/>
<rect x="1649" y="3603" width="2004" height="1010" rx="97" fill="white" stroke="black" stroke-width="6"/>
<path d="M2418.75 4049.24H2373.04V4176H2354.39V4049.24H2308.79V4033.81H2418.75V4049.24ZM2471.09 4177.95C2456.77 4177.95 2445.11 4173.27 2436.13 4163.89C2427.14 4154.45 2422.65 4141.85 2422.65 4126.1V4122.78C2422.65 4112.3 2424.64 4102.95 2428.61 4094.75C2432.65 4086.48 2438.24 4080.04 2445.41 4075.41C2452.63 4070.73 2460.45 4068.38 2468.84 4068.38C2482.58 4068.38 2493.26 4072.91 2500.88 4081.96C2508.49 4091.01 2512.3 4103.96 2512.3 4120.82V4128.34H2440.72C2440.98 4138.76 2444.01 4147.19 2449.8 4153.64C2455.66 4160.02 2463.08 4163.21 2472.07 4163.21C2478.45 4163.21 2483.85 4161.9 2488.28 4159.3C2492.7 4156.7 2496.58 4153.25 2499.9 4148.95L2510.93 4157.54C2502.08 4171.15 2488.8 4177.95 2471.09 4177.95ZM2468.84 4083.23C2461.55 4083.23 2455.43 4085.9 2450.48 4091.23C2445.54 4096.51 2442.48 4103.93 2441.3 4113.5H2494.23V4112.13C2493.71 4102.95 2491.24 4095.86 2486.81 4090.84C2482.39 4085.77 2476.4 4083.23 2468.84 4083.23ZM2568.75 4108.91L2592.18 4070.34H2613.28L2578.71 4122.58L2614.35 4176H2593.45L2569.04 4136.45L2544.62 4176H2523.63L2559.27 4122.58L2524.7 4070.34H2545.6L2568.75 4108.91ZM2657.03 4044.75V4070.34H2676.75V4084.3H2657.03V4149.83C2657.03 4154.06 2657.91 4157.25 2659.66 4159.4C2661.42 4161.48 2664.42 4162.52 2668.65 4162.52C2670.73 4162.52 2673.6 4162.13 2677.24 4161.35V4176C2672.49 4177.3 2667.87 4177.95 2663.38 4177.95C2655.3 4177.95 2649.21 4175.51 2645.11 4170.63C2641.01 4165.75 2638.96 4158.81 2638.96 4149.83V4084.3H2619.72V4070.34H2638.96V4044.75H2657.03ZM2779.2 4113.21H2719.53V4176H2700.78V4033.81H2788.86V4049.24H2719.53V4097.88H2779.2V4113.21ZM2828.12 4176H2810.05V4070.34H2828.12V4176ZM2808.59 4042.31C2808.59 4039.38 2809.47 4036.9 2811.23 4034.89C2813.05 4032.87 2815.72 4031.86 2819.23 4031.86C2822.75 4031.86 2825.42 4032.87 2827.24 4034.89C2829.07 4036.9 2829.98 4039.38 2829.98 4042.31C2829.98 4045.24 2829.07 4047.68 2827.24 4049.63C2825.42 4051.59 2822.75 4052.56 2819.23 4052.56C2815.72 4052.56 2813.05 4051.59 2811.23 4049.63C2809.47 4047.68 2808.59 4045.24 2808.59 4042.31ZM2876.75 4176H2858.69V4026H2876.75V4176ZM2949.61 4177.95C2935.28 4177.95 2923.63 4173.27 2914.64 4163.89C2905.66 4154.45 2901.17 4141.85 2901.17 4126.1V4122.78C2901.17 4112.3 2903.15 4102.95 2907.12 4094.75C2911.16 4086.48 2916.76 4080.04 2923.92 4075.41C2931.15 4070.73 2938.96 4068.38 2947.36 4068.38C2961.1 4068.38 2971.77 4072.91 2979.39 4081.96C2987.01 4091.01 2990.82 4103.96 2990.82 4120.82V4128.34H2919.23C2919.49 4138.76 2922.52 4147.19 2928.32 4153.64C2934.18 4160.02 2941.6 4163.21 2950.58 4163.21C2956.96 4163.21 2962.37 4161.9 2966.79 4159.3C2971.22 4156.7 2975.09 4153.25 2978.41 4148.95L2989.45 4157.54C2980.6 4171.15 2967.31 4177.95 2949.61 4177.95ZM2947.36 4083.23C2940.07 4083.23 2933.95 4085.9 2929 4091.23C2924.05 4096.51 2920.99 4103.93 2919.82 4113.5H2972.75V4112.13C2972.23 4102.95 2969.76 4095.86 2965.33 4090.84C2960.9 4085.77 2954.91 4083.23 2947.36 4083.23Z" fill="black"/>
<rect x="3296" y="1803" width="2004" height="1010" rx="97" fill="white" stroke="black" stroke-width="6"/>
<path d="M3560.5 2376V2233.81H3600.64C3613.01 2233.81 3623.95 2236.55 3633.45 2242.02C3642.96 2247.48 3650.28 2255.26 3655.43 2265.36C3660.63 2275.45 3663.27 2287.04 3663.34 2300.12V2309.2C3663.34 2322.61 3660.73 2334.37 3655.52 2344.46C3650.38 2354.55 3642.99 2362.3 3633.36 2367.7C3623.79 2373.1 3612.62 2375.87 3599.86 2376H3560.5ZM3579.25 2249.24V2360.67H3598.98C3613.43 2360.67 3624.66 2356.18 3632.67 2347.19C3640.74 2338.21 3644.78 2325.41 3644.78 2308.81V2300.51C3644.78 2284.37 3640.97 2271.83 3633.36 2262.91C3625.8 2253.93 3615.06 2249.37 3601.13 2249.24H3579.25ZM3732.77 2377.95C3718.45 2377.95 3706.79 2373.27 3697.81 2363.89C3688.82 2354.45 3684.33 2341.85 3684.33 2326.1V2322.78C3684.33 2312.3 3686.32 2302.95 3690.29 2294.75C3694.33 2286.48 3699.92 2280.04 3707.09 2275.41C3714.31 2270.73 3722.12 2268.38 3730.52 2268.38C3744.26 2268.38 3754.94 2272.91 3762.55 2281.96C3770.17 2291.01 3773.98 2303.96 3773.98 2320.82V2328.34H3702.4C3702.66 2338.76 3705.69 2347.19 3711.48 2353.64C3717.34 2360.02 3724.76 2363.21 3733.75 2363.21C3740.13 2363.21 3745.53 2361.9 3749.96 2359.3C3754.38 2356.7 3758.26 2353.25 3761.58 2348.95L3772.61 2357.54C3763.76 2371.15 3750.48 2377.95 3732.77 2377.95ZM3730.52 2283.23C3723.23 2283.23 3717.11 2285.9 3712.16 2291.23C3707.22 2296.51 3704.16 2303.93 3702.98 2313.5H3755.91V2312.13C3755.39 2302.95 3752.92 2295.86 3748.49 2290.84C3744.07 2285.77 3738.08 2283.23 3730.52 2283.23ZM3828.47 2351.49L3854.64 2270.34H3873.1L3835.21 2376H3821.44L3783.16 2270.34H3801.62L3828.47 2351.49ZM3932.96 2377.95C3918.64 2377.95 3906.99 2373.27 3898 2363.89C3889.02 2354.45 3884.53 2341.85 3884.53 2326.1V2322.78C3884.53 2312.3 3886.51 2302.95 3890.48 2294.75C3894.52 2286.48 3900.12 2280.04 3907.28 2275.41C3914.51 2270.73 3922.32 2268.38 3930.72 2268.38C3944.46 2268.38 3955.13 2272.91 3962.75 2281.96C3970.37 2291.01 3974.18 2303.96 3974.18 2320.82V2328.34H3902.59C3902.85 2338.76 3905.88 2347.19 3911.68 2353.64C3917.54 2360.02 3924.96 2363.21 3933.94 2363.21C3940.32 2363.21 3945.73 2361.9 3950.15 2359.3C3954.58 2356.7 3958.45 2353.25 3961.77 2348.95L3972.81 2357.54C3963.95 2371.15 3950.67 2377.95 3932.96 2377.95ZM3930.72 2283.23C3923.43 2283.23 3917.31 2285.9 3912.36 2291.23C3907.41 2296.51 3904.35 2303.93 3903.18 2313.5H3956.11V2312.13C3955.59 2302.95 3953.11 2295.86 3948.69 2290.84C3944.26 2285.77 3938.27 2283.23 3930.72 2283.23ZM4014.8 2376H3996.73V2226H4014.8V2376ZM4039.02 2322.19C4039.02 2311.84 4041.04 2302.53 4045.07 2294.26C4049.18 2285.99 4054.84 2279.61 4062.07 2275.12C4069.36 2270.63 4077.66 2268.38 4086.97 2268.38C4101.36 2268.38 4112.98 2273.36 4121.83 2283.32C4130.75 2293.29 4135.21 2306.53 4135.21 2323.07V2324.34C4135.21 2334.63 4133.23 2343.87 4129.25 2352.07C4125.35 2360.21 4119.72 2366.56 4112.36 2371.12C4105.07 2375.67 4096.67 2377.95 4087.16 2377.95C4072.84 2377.95 4061.22 2372.97 4052.3 2363.01C4043.45 2353.05 4039.02 2339.87 4039.02 2323.46V2322.19ZM4057.18 2324.34C4057.18 2336.06 4059.89 2345.47 4065.29 2352.56C4070.76 2359.66 4078.05 2363.21 4087.16 2363.21C4096.34 2363.21 4103.64 2359.63 4109.04 2352.46C4114.44 2345.24 4117.14 2335.15 4117.14 2322.19C4117.14 2310.6 4114.38 2301.23 4108.84 2294.07C4103.38 2286.84 4096.08 2283.23 4086.97 2283.23C4078.05 2283.23 4070.86 2286.77 4065.39 2293.87C4059.92 2300.97 4057.18 2311.12 4057.18 2324.34ZM4247.12 2324.34C4247.12 2340.42 4243.45 2353.38 4236.09 2363.21C4228.73 2373.04 4218.77 2377.95 4206.21 2377.95C4193.38 2377.95 4183.29 2373.88 4175.93 2365.75V2416.62H4157.87V2270.34H4174.37L4175.25 2282.05C4182.61 2272.94 4192.83 2268.38 4205.91 2268.38C4218.61 2268.38 4228.64 2273.17 4235.99 2282.74C4243.41 2292.31 4247.12 2305.62 4247.12 2322.68V2324.34ZM4229.06 2322.29C4229.06 2310.38 4226.52 2300.97 4221.44 2294.07C4216.36 2287.17 4209.4 2283.71 4200.54 2283.71C4189.61 2283.71 4181.4 2288.57 4175.93 2298.27V2348.75C4181.34 2358.39 4189.61 2363.21 4200.74 2363.21C4209.4 2363.21 4216.27 2359.79 4221.34 2352.95C4226.49 2346.05 4229.06 2335.83 4229.06 2322.29ZM4314.02 2377.95C4299.7 2377.95 4288.04 2373.27 4279.06 2363.89C4270.07 2354.45 4265.58 2341.85 4265.58 2326.1V2322.78C4265.58 2312.3 4267.57 2302.95 4271.54 2294.75C4275.58 2286.48 4281.17 2280.04 4288.34 2275.41C4295.56 2270.73 4303.38 2268.38 4311.77 2268.38C4325.51 2268.38 4336.19 2272.91 4343.8 2281.96C4351.42 2291.01 4355.23 2303.96 4355.23 2320.82V2328.34H4283.65C4283.91 2338.76 4286.94 2347.19 4292.73 2353.64C4298.59 2360.02 4306.01 2363.21 4315 2363.21C4321.38 2363.21 4326.78 2361.9 4331.21 2359.3C4335.63 2356.7 4339.51 2353.25 4342.83 2348.95L4353.86 2357.54C4345.01 2371.15 4331.73 2377.95 4314.02 2377.95ZM4311.77 2283.23C4304.48 2283.23 4298.36 2285.9 4293.41 2291.23C4288.47 2296.51 4285.41 2303.93 4284.23 2313.5H4337.16V2312.13C4336.64 2302.95 4334.17 2295.86 4329.74 2290.84C4325.32 2285.77 4319.33 2283.23 4311.77 2283.23ZM4427.3 2286.55C4424.57 2286.09 4421.6 2285.86 4418.41 2285.86C4406.57 2285.86 4398.52 2290.91 4394.29 2301V2376H4376.23V2270.34H4393.8L4394.1 2282.54C4400.02 2273.1 4408.42 2268.38 4419.29 2268.38C4422.81 2268.38 4425.48 2268.84 4427.3 2269.75V2286.55ZM4465.68 2360.67H4533.06V2376H4446.83V2233.81H4465.68V2360.67ZM4546.83 2322.19C4546.83 2311.84 4548.85 2302.53 4552.89 2294.26C4556.99 2285.99 4562.65 2279.61 4569.88 2275.12C4577.17 2270.63 4585.47 2268.38 4594.78 2268.38C4609.17 2268.38 4620.79 2273.36 4629.64 2283.32C4638.56 2293.29 4643.02 2306.53 4643.02 2323.07V2324.34C4643.02 2334.63 4641.04 2343.87 4637.07 2352.07C4633.16 2360.21 4627.53 2366.56 4620.17 2371.12C4612.88 2375.67 4604.48 2377.95 4594.98 2377.95C4580.65 2377.95 4569.03 2372.97 4560.11 2363.01C4551.26 2353.05 4546.83 2339.87 4546.83 2323.46V2322.19ZM4565 2324.34C4565 2336.06 4567.7 2345.47 4573.1 2352.56C4578.57 2359.66 4585.86 2363.21 4594.98 2363.21C4604.16 2363.21 4611.45 2359.63 4616.85 2352.46C4622.26 2345.24 4624.96 2335.15 4624.96 2322.19C4624.96 2310.6 4622.19 2301.23 4616.66 2294.07C4611.19 2286.84 4603.9 2283.23 4594.78 2283.23C4585.86 2283.23 4578.67 2286.77 4573.2 2293.87C4567.73 2300.97 4565 2311.12 4565 2324.34ZM4661.38 2322.29C4661.38 2305.82 4665.19 2292.73 4672.81 2283.03C4680.43 2273.27 4690.52 2268.38 4703.08 2268.38C4715.97 2268.38 4726.03 2272.94 4733.26 2282.05L4734.14 2270.34H4750.64V2373.46C4750.64 2387.13 4746.57 2397.91 4738.43 2405.79C4730.36 2413.66 4719.49 2417.6 4705.82 2417.6C4698.2 2417.6 4690.74 2415.97 4683.45 2412.72C4676.16 2409.46 4670.6 2405 4666.75 2399.34L4676.13 2388.5C4683.88 2398.07 4693.35 2402.86 4704.55 2402.86C4713.34 2402.86 4720.17 2400.38 4725.05 2395.43C4730 2390.49 4732.48 2383.52 4732.48 2374.54V2365.45C4725.25 2373.79 4715.39 2377.95 4702.89 2377.95C4690.52 2377.95 4680.49 2372.97 4672.81 2363.01C4665.19 2353.05 4661.38 2339.48 4661.38 2322.29ZM4679.55 2324.34C4679.55 2336.25 4681.99 2345.63 4686.87 2352.46C4691.75 2359.24 4698.59 2362.62 4707.38 2362.62C4718.77 2362.62 4727.14 2357.45 4732.48 2347.09V2298.85C4726.94 2288.76 4718.64 2283.71 4707.57 2283.71C4698.79 2283.71 4691.92 2287.13 4686.97 2293.97C4682.02 2300.8 4679.55 2310.93 4679.55 2324.34ZM4773.69 2322.29C4773.69 2305.82 4777.5 2292.73 4785.11 2283.03C4792.73 2273.27 4802.82 2268.38 4815.39 2268.38C4828.28 2268.38 4838.34 2272.94 4845.56 2282.05L4846.44 2270.34H4862.95V2373.46C4862.95 2387.13 4858.88 2397.91 4850.74 2405.79C4842.67 2413.66 4831.79 2417.6 4818.12 2417.6C4810.5 2417.6 4803.05 2415.97 4795.76 2412.72C4788.47 2409.46 4782.9 2405 4779.06 2399.34L4788.43 2388.5C4796.18 2398.07 4805.65 2402.86 4816.85 2402.86C4825.64 2402.86 4832.48 2400.38 4837.36 2395.43C4842.31 2390.49 4844.78 2383.52 4844.78 2374.54V2365.45C4837.55 2373.79 4827.69 2377.95 4815.19 2377.95C4802.82 2377.95 4792.8 2372.97 4785.11 2363.01C4777.5 2353.05 4773.69 2339.48 4773.69 2322.29ZM4791.85 2324.34C4791.85 2336.25 4794.29 2345.63 4799.18 2352.46C4804.06 2359.24 4810.89 2362.62 4819.68 2362.62C4831.08 2362.62 4839.44 2357.45 4844.78 2347.09V2298.85C4839.25 2288.76 4830.95 2283.71 4819.88 2283.71C4811.09 2283.71 4804.22 2287.13 4799.27 2293.97C4794.33 2300.8 4791.85 2310.93 4791.85 2324.34ZM4934.14 2377.95C4919.81 2377.95 4908.16 2373.27 4899.18 2363.89C4890.19 2354.45 4885.7 2341.85 4885.7 2326.1V2322.78C4885.7 2312.3 4887.68 2302.95 4891.66 2294.75C4895.69 2286.48 4901.29 2280.04 4908.45 2275.41C4915.68 2270.73 4923.49 2268.38 4931.89 2268.38C4945.63 2268.38 4956.3 2272.91 4963.92 2281.96C4971.54 2291.01 4975.35 2303.96 4975.35 2320.82V2328.34H4903.77C4904.03 2338.76 4907.05 2347.19 4912.85 2353.64C4918.71 2360.02 4926.13 2363.21 4935.11 2363.21C4941.49 2363.21 4946.9 2361.9 4951.32 2359.3C4955.75 2356.7 4959.62 2353.25 4962.95 2348.95L4973.98 2357.54C4965.13 2371.15 4951.85 2377.95 4934.14 2377.95ZM4931.89 2283.23C4924.6 2283.23 4918.48 2285.9 4913.53 2291.23C4908.58 2296.51 4905.52 2303.93 4904.35 2313.5H4957.28V2312.13C4956.76 2302.95 4954.29 2295.86 4949.86 2290.84C4945.43 2285.77 4939.44 2283.23 4931.89 2283.23ZM5047.42 2286.55C5044.68 2286.09 5041.72 2285.86 5038.53 2285.86C5026.68 2285.86 5018.64 2290.91 5014.41 2301V2376H4996.34V2270.34H5013.92L5014.21 2282.54C5020.14 2273.1 5028.54 2268.38 5039.41 2268.38C5042.93 2268.38 5045.6 2268.84 5047.42 2269.75V2286.55Z" fill="black"/>
<rect x="4942" y="3603" width="2004" height="1010" rx="97" fill="white" stroke="black" stroke-width="6"/>
<path d="M5608.07 4033.81H5626.92V4134.5C5626.92 4148.1 5622.82 4158.75 5614.62 4166.43C5606.48 4174.11 5595.61 4177.95 5582 4177.95C5567.87 4177.95 5556.87 4174.34 5548.99 4167.11C5541.11 4159.89 5537.18 4149.76 5537.18 4136.74H5555.93C5555.93 4144.88 5558.14 4151.23 5562.57 4155.79C5567.06 4160.34 5573.54 4162.62 5582 4162.62C5589.75 4162.62 5596 4160.18 5600.75 4155.3C5605.57 4150.41 5608.01 4143.58 5608.07 4134.79V4033.81ZM5700.75 4112.62C5684.67 4108 5672.95 4102.33 5665.59 4095.63C5658.3 4088.86 5654.66 4080.52 5654.66 4070.63C5654.66 4059.43 5659.12 4050.19 5668.04 4042.89C5677.02 4035.54 5688.67 4031.86 5703 4031.86C5712.76 4031.86 5721.45 4033.75 5729.07 4037.52C5736.75 4041.3 5742.68 4046.51 5746.84 4053.15C5751.08 4059.79 5753.19 4067.05 5753.19 4074.93H5734.34C5734.34 4066.33 5731.61 4059.59 5726.14 4054.71C5720.67 4049.76 5712.96 4047.29 5703 4047.29C5693.75 4047.29 5686.52 4049.34 5681.32 4053.44C5676.17 4057.48 5673.6 4063.11 5673.6 4070.34C5673.6 4076.13 5676.04 4081.05 5680.93 4085.08C5685.87 4089.05 5694.24 4092.7 5706.02 4096.02C5717.87 4099.34 5727.12 4103.02 5733.76 4107.05C5740.46 4111.03 5745.41 4115.68 5748.6 4121.02C5751.86 4126.36 5753.48 4132.64 5753.48 4139.87C5753.48 4151.39 5748.99 4160.64 5740.01 4167.6C5731.02 4174.5 5719.01 4177.95 5703.97 4177.95C5694.21 4177.95 5685.09 4176.1 5676.63 4172.39C5668.17 4168.61 5661.62 4163.47 5657 4156.96C5652.44 4150.45 5650.16 4143.06 5650.16 4134.79H5669.01C5669.01 4143.38 5672.17 4150.19 5678.48 4155.2C5684.86 4160.15 5693.36 4162.62 5703.97 4162.62C5713.87 4162.62 5721.45 4160.6 5726.73 4156.57C5732 4152.53 5734.64 4147.03 5734.64 4140.06C5734.64 4133.1 5732.2 4127.73 5727.31 4123.95C5722.43 4120.11 5713.58 4116.33 5700.75 4112.62ZM5886.98 4109.5C5886.98 4123.43 5884.64 4135.6 5879.95 4146.02C5875.26 4156.37 5868.62 4164.28 5860.03 4169.75C5851.43 4175.22 5841.41 4177.95 5829.95 4177.95C5818.75 4177.95 5808.82 4175.22 5800.16 4169.75C5791.51 4164.22 5784.77 4156.37 5779.95 4146.21C5775.2 4135.99 5772.76 4124.18 5772.62 4110.77V4100.51C5772.62 4086.84 5775 4074.76 5779.75 4064.28C5784.51 4053.8 5791.21 4045.79 5799.87 4040.26C5808.6 4034.66 5818.56 4031.86 5829.75 4031.86C5841.15 4031.86 5851.17 4034.63 5859.83 4040.16C5868.56 4045.63 5875.26 4053.6 5879.95 4064.09C5884.64 4074.5 5886.98 4086.64 5886.98 4100.51V4109.5ZM5868.33 4100.32C5868.33 4083.45 5864.94 4070.53 5858.17 4061.55C5851.4 4052.5 5841.93 4047.97 5829.75 4047.97C5817.9 4047.97 5808.56 4052.5 5801.73 4061.55C5794.96 4070.53 5791.47 4083.03 5791.28 4099.05V4109.5C5791.28 4125.84 5794.7 4138.7 5801.53 4148.07C5808.43 4157.38 5817.9 4162.04 5829.95 4162.04C5842.06 4162.04 5851.43 4157.64 5858.07 4148.85C5864.71 4140 5868.13 4127.33 5868.33 4110.86V4100.32ZM6024.38 4176H6005.54L5933.95 4066.43V4176H5915.11V4033.81H5933.95L6005.73 4143.87V4033.81H6024.38V4176ZM6136.1 4113.21H6076.43V4176H6057.68V4033.81H6145.77V4049.24H6076.43V4097.88H6136.1V4113.21ZM6185.03 4176H6166.96V4070.34H6185.03V4176ZM6165.5 4042.31C6165.5 4039.38 6166.38 4036.9 6168.13 4034.89C6169.96 4032.87 6172.62 4031.86 6176.14 4031.86C6179.66 4031.86 6182.33 4032.87 6184.15 4034.89C6185.97 4036.9 6186.88 4039.38 6186.88 4042.31C6186.88 4045.24 6185.97 4047.68 6184.15 4049.63C6182.33 4051.59 6179.66 4052.56 6176.14 4052.56C6172.62 4052.56 6169.96 4051.59 6168.13 4049.63C6166.38 4047.68 6165.5 4045.24 6165.5 4042.31ZM6233.66 4176H6215.59V4026H6233.66V4176ZM6306.51 4177.95C6292.19 4177.95 6280.54 4173.27 6271.55 4163.89C6262.57 4154.45 6258.07 4141.85 6258.07 4126.1V4122.78C6258.07 4112.3 6260.06 4102.95 6264.03 4094.75C6268.07 4086.48 6273.67 4080.04 6280.83 4075.41C6288.05 4070.73 6295.87 4068.38 6304.27 4068.38C6318 4068.38 6328.68 4072.91 6336.3 4081.96C6343.91 4091.01 6347.72 4103.96 6347.72 4120.82V4128.34H6276.14C6276.4 4138.76 6279.43 4147.19 6285.22 4153.64C6291.08 4160.02 6298.5 4163.21 6307.49 4163.21C6313.87 4163.21 6319.27 4161.9 6323.7 4159.3C6328.13 4156.7 6332 4153.25 6335.32 4148.95L6346.36 4157.54C6337.5 4171.15 6324.22 4177.95 6306.51 4177.95ZM6304.27 4083.23C6296.97 4083.23 6290.85 4085.9 6285.91 4091.23C6280.96 4096.51 6277.9 4103.93 6276.73 4113.5H6329.66V4112.13C6329.14 4102.95 6326.66 4095.86 6322.23 4090.84C6317.81 4085.77 6311.82 4083.23 6304.27 4083.23Z" fill="black"/>
<path fill-rule="evenodd" clip-rule="evenodd" d="M2641 1016V1402H958.001H948.001H938.001L938.001 1775.86L891.432 1729.29C887.527 1725.38 881.196 1725.38 877.29 1729.29C873.385 1733.19 873.385 1739.53 877.29 1743.43L940.93 1807.07C944.835 1810.98 951.167 1810.98 955.072 1807.07L1018.71 1743.43C1022.62 1739.53 1022.62 1733.19 1018.71 1729.29C1014.81 1725.38 1008.47 1725.38 1004.57 1729.29L958.001 1775.86L958.001 1422H2651H4344V1775.86L4297.43 1729.29C4293.53 1725.38 4287.2 1725.38 4283.29 1729.29C4279.38 1733.19 4279.38 1739.53 4283.29 1743.43L4346.93 1807.07C4350.83 1810.98 4357.17 1810.98 4361.07 1807.07L4424.71 1743.43C4428.62 1739.53 4428.62 1733.19 4424.71 1729.29C4420.81 1725.38 4414.47 1725.38 4410.57 1729.29L4364 1775.86V1402H4354H4344H2661V1016H2641Z" fill="#D3D3D3"/>
<path fill-rule="evenodd" clip-rule="evenodd" d="M4287 2816V3202H2604H2594H2584L2584 3575.86L2537.43 3529.29C2533.53 3525.38 2527.2 3525.38 2523.29 3529.29C2519.39 3533.19 2519.39 3539.53 2523.29 3543.43L2586.93 3607.07C2590.84 3610.98 2597.17 3610.98 2601.07 3607.07L2664.71 3543.43C2668.62 3539.53 2668.62 3533.19 2664.71 3529.29C2660.81 3525.38 2654.47 3525.38 2650.57 3529.29L2604 3575.86L2604 3222H4297H5990V3575.86L5943.43 3529.29C5939.53 3525.38 5933.2 3525.38 5929.29 3529.29C5925.38 3533.19 5925.38 3539.53 5929.29 3543.43L5992.93 3607.07C5996.83 3610.98 6003.17 3610.98 6007.07 3607.07L6070.71 3543.43C6074.62 3539.53 6074.62 3533.19 6070.71 3529.29C6066.81 3525.38 6060.47 3525.38 6056.57 3529.29L6010 3575.86V3202H6000H5990H4307V2816H4287Z" fill="#D3D3D3"/>
<path d="M3300.07 2344.07C3303.98 2340.17 3303.98 2333.83 3300.07 2329.93L3236.43 2266.29C3232.53 2262.38 3226.19 2262.38 3222.29 2266.29C3218.38 2270.19 3218.38 2276.53 3222.29 2280.43L3278.86 2337L3222.29 2393.57C3218.38 2397.47 3218.38 2403.81 3222.29 2407.71C3226.19 2411.62 3232.53 2411.62 3236.43 2407.71L3300.07 2344.07ZM2010 2347H3293V2327H2010V2347Z" fill="#D3D3D3"/>
<path d="M4946.07 4144.07C4949.98 4140.17 4949.98 4133.83 4946.07 4129.93L4882.43 4066.29C4878.53 4062.38 4872.19 4062.38 4868.29 4066.29C4864.38 4070.19 4864.38 4076.53 4868.29 4080.43L4924.86 4137L4868.29 4193.57C4864.38 4197.47 4864.38 4203.81 4868.29 4207.71C4872.19 4211.62 4878.53 4211.62 4882.43 4207.71L4946.07 4144.07ZM3656 4147H4939V4127H3656V4147Z" fill="#D3D3D3"/>
</svg>
